<svg id="Слой_1" height="512" viewBox="0 0 512 512" width="512" xmlns="http://www.w3.org/2000/svg"><g id="_x31_"><circle cx="256" cy="234.208" fill="#e6ecff" r="213.216"/><ellipse cx="256" cy="480.772" fill="#c7d1ea" rx="126.182" ry="10.236"/><g id="_x31__1_"><path d="m323.29 364.268c0 .744-.186 1.675-.372 2.419-2.233 8.747-4.467 17.494-6.886 26.055 0 0-12.283 13.028-29.964 7.817l1.861-13.028 2.792-26.614c.931-9.119 9.119-15.633 18.053-14.703s15.447 8.935 14.516 18.054z" fill="#e26988"/><path d="m297.794 460.3h-.067c3.921-13.766 7.731-27.598 11.419-41.316 4.466-17.68 10.236-37.222 14.144-54.716 2.606-21.216-30.894-24.566-32.754-3.351-3.536 34.803-7.63 72.583-12.097 107.199-.147 1.497.096 2.826.618 3.968 4.899 15.408 46.257 11.279 50.003 2.36.186-.558.186-1.116.186-1.675-1.861-10.608-28.474-12.283-31.452-12.469z" fill="#ed7e97"/><path d="m329.06 474.444c-.186 0-.186 0 0 0 0 0-11.539-7.444-32.569-9.678-.558 0-1.117-.186-1.675-.186-3.35-.372-5.397-3.908-4.094-6.886l20.1-45.224-1.675 6.514c-3.722 13.772-7.444 27.544-11.353 41.316 2.978.186 29.591 1.861 31.452 12.469 0 .559 0 1.117-.186 1.675z" fill="#f490aa"/><path d="m328.874 474.444c-3.908 9.305-48.76 13.4-50.435-4.653h.372s18.796 12.47 50.063 4.653z" fill="#e26988"/><path d="m210.881 387.718 1.675 15.447c-19.355 6.514-27.358-.744-27.358-.744l-2.606-9.492c-2.233-8.747-4.653-17.308-6.886-26.055s2.978-17.866 11.911-20.1c8.747-2.233 17.866 2.978 20.1 11.911.186.744.372 1.489.372 2.419v.186z" fill="#e26988"/><path d="m220.186 468.675c0-.097-.001-.145-.027-.219-4.455-34.925-8.541-72.25-12.069-107.724-2.606-23.078-37.78-16.75-32.383 5.769 4.28 16.75 9.305 35.547 13.772 52.297 3.685 13.859 7.493 27.6 11.412 41.317-.019 0-.034 0-.06 0-2.977.186-29.591 2.047-31.452 12.469-1.675 10.236 46.154 16.191 50.435-1.117.044-.219.087-.438.129-.657.167-.662.259-1.371.243-2.135z" fill="#ed7e97"/><path d="m207.903 462.347c.744 1.861-.558 3.722-2.606 3.722-.931 0-1.861 0-2.792 0-20.844.372-33.127 6.514-33.127 6.514 1.861-10.422 28.475-12.283 31.452-12.469-3.908-13.772-7.63-27.544-11.353-41.316l-1.675-6.514z" fill="#f490aa"/><path d="m219.814 471.467c-4.281 17.308-52.11 11.353-50.435 1.117-.001.185 27.171 8.746 50.435-1.117z" fill="#e26988"/><path d="m303.271 483.898c-.947 0-1.885-.021-2.809-.062-12.354-.555-20.658-4.64-22.809-11.213-.633-1.428-.871-2.993-.708-4.655 3.816-29.581 7.772-64.633 12.098-107.203.568-6.489 3.978-11.473 9.596-14.013 6.281-2.839 14.215-2.017 19.741 2.049 4.921 3.62 7.193 9.178 6.398 15.648-.007.049-.015.097-.025.145-2.431 10.882-5.607 22.656-8.68 34.043-1.858 6.888-3.78 14.011-5.474 20.714-3.729 13.868-7.399 27.166-10.924 39.577 9.992.781 29.293 3.585 31.047 13.581.015.085.022.172.022.259 0 .638 0 1.361-.264 2.15-.012.036-.025.071-.04.106-2.39 5.7-15.409 8.874-27.169 8.874zm3.335-135.801c-2.339 0-4.662.455-6.73 1.39-4.588 2.073-7.374 6.18-7.846 11.562-4.33 42.618-8.288 77.696-12.104 107.261-.109 1.115.056 2.191.494 3.152.025.055.047.111.065.169 2.419 7.606 14.87 8.975 20.11 9.21 13.292.601 25.398-3.221 27.056-6.921.084-.285.093-.625.094-1.012-1.383-6.887-16.979-10.286-29.999-11.107h-.02c-.471 0-.914-.221-1.197-.597-.283-.375-.374-.861-.245-1.314 3.675-12.903 7.515-26.796 11.413-41.294 1.693-6.705 3.618-13.839 5.479-20.738 3.057-11.33 6.218-23.046 8.632-33.843.632-5.317-1.215-9.859-5.206-12.795-2.788-2.053-6.409-3.123-9.996-3.123z" fill="#bf4b6f"/><path d="m196.939 484.396c-10.213 0-20.77-2.648-25.709-6.138-3.185-2.249-3.569-4.459-3.331-5.917 1.816-10.17 22.336-12.896 31.042-13.595-3.931-13.794-7.505-26.754-10.912-39.563l-.804-3.015c-4.193-15.72-8.945-33.537-12.972-49.297-1.669-6.964.114-13.145 5.015-17.426 5.286-4.616 13.217-6.018 19.733-3.489 6.022 2.337 9.779 7.524 10.579 14.607 3.927 39.484 7.986 75.714 12.066 107.702.005.037.008.075.01.114.27 5.335-2.244 9.618-7.27 12.384-4.674 2.576-10.992 3.633-17.447 3.633zm-4.685-136.666c-3.993 0-8.057 1.395-11.012 3.976-4.02 3.511-5.468 8.641-4.077 14.445 4.018 15.723 8.768 33.531 12.958 49.244l.804 3.016c3.548 13.343 7.279 26.85 11.405 41.292.129.452.039.939-.245 1.315s-.727.597-1.198.597c-10.507.654-28.701 3.76-30.036 11.232-.188 1.147 1.238 2.349 2.104 2.961 7.285 5.145 29.35 8.181 39.98 2.328 3.988-2.195 5.914-5.408 5.723-9.55-4.081-32.001-8.141-68.237-12.066-107.706-.667-5.899-3.75-10.214-8.681-12.127-1.775-.69-3.708-1.023-5.659-1.023z" fill="#bf4b6f"/><path d="m454.125 296.152c0 27.916-22.705 50.622-50.622 50.622-.558 0-1.303 0-1.861 0-5.956 21.216-25.497 36.849-48.76 36.849-9.305 0-18.053-2.419-25.497-6.886-9.305 12.655-24.194 20.844-40.944 20.844-13.4 0-25.497-5.211-34.43-13.586-9.119 8.375-21.216 13.586-34.43 13.586-15.819 0-29.964-7.258-39.269-18.611-6.514 2.978-13.586 4.653-21.216 4.653-20.1 0-37.408-11.725-45.597-28.475-.558-1.303-1.303-2.605-1.675-4.094-1.303.186-2.792.558-4.094.744-1.861.186-3.908.372-5.955.372-20.1 0-37.408-11.725-45.597-28.661-3.164-6.7-5.025-14.144-5.025-22.147 0-9.119 2.419-17.494 6.514-24.939-6.7-8.561-10.608-19.355-10.608-31.08 0-23.264 15.819-42.991 37.222-48.947-1.303-4.467-1.861-9.119-1.861-13.958 0-27.916 22.705-50.622 50.622-50.622 7.072 0 13.958 1.489 20.1 4.094 3.908-24.194 24.752-42.805 50.063-42.805 16.564 0 31.266 8.003 40.572 20.286 8.747-15.075 26.242-25.125 44.853-25.125 26.427 0 48.202 20.286 50.435 46.155 5.025-1.675 10.422-2.606 16.005-2.606 27.916 0 50.622 22.705 50.622 50.622v1.303c3.908.931 7.63 2.233 10.98 3.908 16.936 8.189 28.475 25.497 28.475 45.597 0 8.933-2.233 17.308-6.328 24.566 10.42 9.308 17.306 23.08 17.306 38.341z" fill="#fc9db8"/><path d="m430.803 273.118c0 27.916-22.705 50.622-50.622 50.622-.558 0-1.303 0-1.861 0-5.956 21.216-25.497 36.85-48.76 36.85-9.305 0-18.053-2.419-25.497-6.886-9.305 12.655-24.194 20.844-40.944 20.844-13.4 0-25.497-5.211-34.43-13.586-9.119 8.375-21.216 13.586-34.43 13.586-15.819 0-29.964-7.258-39.269-18.611-6.514 2.978-13.586 4.653-21.216 4.653-8.003 0-15.447-1.861-22.147-5.025 0 0 .186-2.979-1.675-4.096-8.747-5.769-19.727-13.398-23.449-23.262-3.536.744-7.444 1.117-11.167.931-7.444-.186-14.703-2.047-21.03-5.025-3.164-6.7-5.025-14.144-5.025-22.147 0-9.119 2.419-17.494 6.514-24.939-6.7-8.561-10.608-19.355-10.608-31.08 0-23.264 15.819-42.991 37.222-48.947-1.303-4.467-1.861-9.119-1.861-13.958 0-27.916 22.705-50.622 50.622-50.622 7.072 0 13.958 1.489 20.1 4.094 3.908-24.194 24.752-42.805 50.063-42.805 16.564 0 31.266 8.003 40.572 20.286h1.117c8.747-15.075 25.125-25.125 43.736-25.125 26.427 0 48.202 20.286 50.435 46.155 5.025-1.675 10.422-2.605 16.005-2.605 27.916 0 50.622 22.705 50.622 50.622v1.303c3.908.931 7.63 2.233 10.98 3.908 3.164 6.7 5.025 14.144 5.025 22.147 0 8.933-2.233 17.308-6.328 24.566 10.42 9.119 17.306 22.891 17.306 38.152z" fill="#ffa6bd"/><path d="m403.317 182.626c-16.936-54.716-70.349-39.455-70.349-39.455s-5.769-29.033-37.78-37.78c-31.825-8.561-51.924 19.169-51.924 19.169s-16.75-18.053-44.666-15.075-39.083 39.083-39.083 39.083-23.636-8.189-50.435 5.769c-26.614 13.958-20.286 51.924-20.286 51.924-53.413 27.916-34.058 69.605-33.872 70.163-6.7-8.561-10.608-19.355-10.608-31.08 0-23.264 15.819-42.991 37.222-48.947-1.303-4.467-1.861-9.119-1.861-13.958 0-27.916 22.705-50.622 50.622-50.622 7.072 0 13.958 1.489 20.1 4.094 3.908-24.194 24.752-42.805 50.063-42.805 16.564 0 31.266 8.003 40.572 20.286h1.117c8.747-15.075 25.125-25.125 43.736-25.125 26.427 0 48.202 20.286 50.435 46.155 5.025-1.675 10.422-2.606 16.005-2.606 28.287.188 50.992 22.894 50.992 50.81z" fill="#ffb8cc"/><path d="m265.969 372.643c-.372 0-.744-.186-1.117-.372-.744-.558-.744-1.675-.186-2.233 8.933-10.98 0-28.289-.186-28.475-.372-.744-.186-1.675.372-2.047 14.144-10.794 21.961-22.705 23.636-35.361 1.861-15.633-7.072-26.986-7.072-27.172-.558-.744-.372-1.675.186-2.233.744-.558 1.675-.372 2.233.186.372.558 9.864 12.469 7.817 29.405-1.675 13.214-9.492 25.497-23.822 36.663 2.047 4.467 8.189 19.914-.744 30.894-.187.559-.559.745-1.117.745z" fill="#ed7e97"/><path d="m286.441 399.081c-12.778 0-24.954-4.63-34.44-13.063-9.66 8.435-21.829 13.063-34.42 13.063-15.332 0-29.732-6.647-39.693-18.281-6.639 2.869-13.628 4.323-20.792 4.323-19.812 0-38.238-11.507-46.945-29.315-.186-.431-.356-.792-.528-1.157-.286-.609-.579-1.231-.831-1.896-.237.046-.477.094-.716.142-.728.146-1.456.291-2.135.388-1.894.19-4.027.387-6.167.387-20.158 0-38.146-11.307-46.947-29.508-3.436-7.276-5.175-14.942-5.175-22.8 0-8.627 2.097-16.965 6.233-24.797-6.759-8.979-10.327-19.753-10.327-31.222 0-22.894 15.093-43.229 36.887-49.971-1.026-4.009-1.526-8.257-1.526-12.934 0-28.74 23.382-52.122 52.122-52.122 6.413 0 12.924 1.211 18.949 3.514 4.847-24.577 26.095-42.225 51.214-42.225 15.768 0 30.377 6.958 40.416 19.168 9.434-14.65 26.853-24.007 45.009-24.007 26.195 0 48.566 19.915 51.736 45.675 4.79-1.412 9.728-2.126 14.704-2.126 28.74 0 52.122 23.382 52.122 52.122v.13c3.68.953 7.089 2.208 10.15 3.739 18.069 8.736 29.305 26.726 29.305 46.939 0 8.578-2.053 16.936-5.946 24.253 10.77 10.06 16.924 24.08 16.924 38.654 0 28.74-23.382 52.122-52.122 52.122h-.737c-6.63 21.754-26.979 36.849-49.884 36.849-8.974 0-17.622-2.217-25.102-6.421-9.916 12.784-25.267 20.377-41.338 20.377zm-34.43-16.586c.369 0 .737.136 1.026.405 9.066 8.5 20.93 13.181 33.405 13.181 15.565 0 30.42-7.563 39.735-20.232.458-.624 1.318-.795 1.979-.397 7.274 4.365 15.824 6.672 24.726 6.672 21.949 0 41.405-14.702 47.315-35.754.182-.647.772-1.095 1.444-1.095h1.861c27.086 0 49.122-22.036 49.122-49.122 0-14.115-6.125-27.683-16.805-37.224-.526-.469-.653-1.241-.308-1.855 4.014-7.113 6.135-15.353 6.135-23.828 0-19.052-10.587-36.007-27.629-44.247-3.19-1.596-6.775-2.871-10.674-3.799-.676-.161-1.152-.765-1.152-1.459v-1.303c0-27.086-22.036-49.122-49.122-49.122-5.271 0-10.496.851-15.53 2.529-.437.146-.914.083-1.299-.169-.384-.252-.631-.667-.67-1.125-2.168-25.112-23.666-44.784-48.941-44.784-17.866 0-34.963 9.569-43.556 24.378-.252.434-.705.713-1.206.744-.497.036-.984-.191-1.288-.591-9.48-12.515-23.833-19.692-39.376-19.692-24.262 0-44.694 17.472-48.582 41.544-.074.455-.352.851-.755 1.074s-.887.249-1.311.068c-6.132-2.601-12.88-3.975-19.515-3.975-27.086 0-49.122 22.036-49.122 49.122 0 4.955.589 9.383 1.801 13.538.112.385.066.799-.129 1.149s-.522.608-.908.716c-21.27 5.918-36.124 25.452-36.124 47.502 0 11.127 3.558 21.555 10.289 30.155.37.474.422 1.121.133 1.647-4.199 7.635-6.329 15.782-6.329 24.217 0 7.411 1.643 14.646 4.882 21.506 8.289 17.145 25.243 27.802 44.24 27.802 2 0 4.046-.188 5.806-.364.564-.082 1.236-.217 1.908-.352.724-.145 1.448-.288 2.124-.386.763-.101 1.482.376 1.668 1.122.229.916.632 1.775 1.059 2.685.187.397.371.79.539 1.184 8.175 16.718 25.544 27.564 44.218 27.564 7.108 0 14.036-1.52 20.592-4.518.618-.283 1.352-.113 1.784.413 9.408 11.479 23.298 18.063 38.109 18.063 12.287 0 24.154-4.685 33.415-13.19.288-.265.652-.397 1.016-.397z" fill="#bf4b6f"/><path d="m305.796 167.179c10.794 3.722 21.03 2.792 22.705-2.047 1.675-5.025-5.583-12.097-16.378-15.819-10.794-3.722-21.03-2.792-22.705 2.047s5.584 11.911 16.378 15.819z" fill="#ed7e97"/><path d="m318.452 171.087c-4.094 0-8.561-.931-13.028-2.419-5.397-1.861-10.236-4.653-13.586-7.817-3.536-3.536-5.025-7.072-3.908-10.05s4.467-5.025 9.305-5.397c4.467-.372 10.05.372 15.447 2.233s10.236 4.653 13.586 7.817c3.536 3.536 5.025 7.072 3.908 10.05s-4.467 5.025-9.305 5.397c-.744.186-1.675.186-2.419.186zm-18.797-22.705c-.744 0-1.489 0-2.047.186-3.536.372-5.956 1.489-6.514 3.164s.558 4.094 3.164 6.7c2.978 2.792 7.258 5.397 12.283 7.072 5.025 1.675 10.05 2.606 14.144 2.233 3.536-.372 5.956-1.489 6.514-3.164s-.558-4.094-3.164-6.7c-2.978-2.792-7.258-5.397-12.283-7.072-4.281-1.488-8.375-2.419-12.097-2.419z" fill="#bf4b6f"/><path d="m199.528 169.598c10.608-4.467 17.494-12.097 15.447-16.936s-12.283-5.211-22.891-.744-17.494 12.097-15.447 16.936 12.283 5.211 22.891.744z" fill="#ed7e97"/><path d="m185.57 174.251c-5.211 0-9.119-1.675-10.608-4.839-2.419-5.769 4.653-14.144 16.378-18.983 5.397-2.233 10.794-3.35 15.261-3.35 5.025.186 8.375 1.861 9.678 4.839s0 6.7-3.35 10.422c-3.164 3.35-7.63 6.514-13.028 8.747-5.026 2.234-10.051 3.164-14.331 3.164zm20.472-23.822c-3.908 0-8.561 1.117-13.214 2.978-10.422 4.467-16.005 11.353-14.516 14.703s10.236 4.281 20.658-.186c4.839-2.047 9.119-4.839 11.911-7.817 2.419-2.606 3.35-5.211 2.606-6.886s-3.164-2.792-6.7-2.792c-.373 0-.559 0-.745 0z" fill="#bf4b6f"/><g fill="#ed7e97"><path d="m182.592 138.332c-.372 0-.558 0-.931-.372-.744-.558-.931-1.489-.372-2.233.186-.186 13.028-18.611 34.43-9.492.744.372 1.303 1.303.931 2.233-.372.744-1.303 1.303-2.233.931-18.983-8.003-29.964 7.63-30.522 8.375-.372.186-.931.558-1.303.558z"/><path d="m198.97 348.635c-3.722 0-14.889-1.117-18.983-13.772-.186-.931.186-1.861 1.117-2.047s1.861.186 2.047 1.117c3.908 12.469 16.005 11.539 16.564 11.353.931-.186 1.675.558 1.861 1.489 0 .931-.558 1.675-1.489 1.861-.001-.001-.373-.001-1.117-.001z"/><path d="m314.729 365.385c-2.233 0-4.653-.372-7.444-1.489-.931-.372-1.303-1.303-.931-2.047.372-.931 1.303-1.303 2.047-.931 12.283 4.653 18.983-5.583 19.169-5.956.558-.744 1.489-.931 2.233-.558.744.558.931 1.489.558 2.233.001.001-5.582 8.748-15.632 8.748z"/><path d="m142.021 294.291c-.186 0-.372 0-.558-.186-.186 0-14.33-5.583-11.911-21.216.186-.931.931-1.489 1.861-1.303.931.186 1.489.931 1.303 1.861-2.047 13.028 9.305 17.494 9.678 17.494.931.372 1.303 1.303.931 2.047-.188.931-.746 1.303-1.304 1.303z"/><path d="m364.979 306.016c-.931 0-1.675-.744-1.675-1.489 0-.931.558-1.675 1.489-1.675 13.028-.744 14.889-12.841 15.075-13.4.186-.931.931-1.489 1.861-1.489.931.186 1.489.931 1.489 1.861-.001.001-2.234 15.262-18.239 16.192.186 0 .186 0 0 0z"/><path d="m112.243 215.567c-.931 0-1.675-.744-1.675-1.675-.558-21.589 16.005-26.8 20.658-27.916 1.675-7.817 5.211-13.772 10.422-17.308 8.375-5.583 17.866-3.536 18.425-3.536.931.186 1.489 1.117 1.303 1.861-.186.931-1.117 1.489-1.861 1.303-.186 0-8.747-1.675-15.819 2.978-4.839 3.164-7.817 8.747-9.305 16.191-.186.744-.744 1.303-1.489 1.303-.744.186-19.541 2.792-18.983 24.752-.001 1.303-.745 2.047-1.676 2.047z"/><path d="m411.32 224.314c-.186 0-.372 0-.558 0-.931-.186-1.303-1.117-1.117-2.047s2.605-8.561-1.675-16.005c-2.792-5.025-8.003-8.561-15.261-10.608-.744-.186-1.117-.744-1.303-1.489 0-.744-1.117-19.728-22.891-21.03-.931 0-1.675-.744-1.489-1.675 0-.931.744-1.675 1.675-1.489 21.589 1.303 25.311 18.239 25.869 23.077 7.63 2.233 13.214 6.328 16.378 11.911 4.839 8.747 2.047 18.239 1.861 18.611s-.745.744-1.489.744z"/><path d="m205.111 370.596c-.931 0-1.861 0-2.606-.186-6.7-1.117-11.167-5.955-12.841-8.003-21.589 4.839-29.219-16.378-29.219-16.564-.372-.931.186-1.861.931-2.047.931-.372 1.861.186 2.047.931.186.744 7.072 19.355 26.427 14.144.744-.186 1.489.186 1.861.744 0 0 4.094 6.328 11.353 7.444 4.839.744 10.236-1.117 15.633-5.769.744-.558 1.675-.558 2.233.186s.558 1.675-.186 2.233c-5.397 4.84-10.608 6.887-15.633 6.887z"/><path d="m354.557 365.199c-6.7 0-11.911-1.675-12.097-1.675-.931-.186-1.303-1.117-1.117-2.047.186-.931 1.117-1.303 2.047-1.117 1.117.372 25.869 8.003 33.5-13.4.372-.931 1.303-1.303 2.047-.931.931.372 1.303 1.303.931 2.047-4.653 14.145-16.192 17.123-25.311 17.123z"/><path d="m405.923 254.836c-.186 0-.372 0-.372 0-.931-.186-1.303-1.117-1.117-2.047.372-1.117 7.258-26.241-14.33-33.127-.931-.186-1.303-1.117-1.117-2.047s1.117-1.303 2.047-1.117c24.566 8.003 16.564 36.85 16.564 37.222-.373.558-.931 1.116-1.675 1.116z"/><path d="m278.252 191.931c-.372 0-.558 0-.744-.186-.744-.372-1.117-1.489-.558-2.233 11.353-19.169-10.608-33.127-11.539-33.686-.558-.372-.744-.931-.744-1.489.931-11.725-.931-20.472-5.955-25.683-3.661-3.943-8.175-4.902-10.478-5.136-.827-.084-1.471-.748-1.517-1.577-.057-1.02.799-1.859 1.816-1.767 2.901.261 8.145 1.368 12.412 6.061 5.397 5.769 7.817 14.889 6.886 27.172 4.28 2.978 23.264 18.053 11.725 37.594-.187.558-.746.93-1.304.93z"/></g><ellipse cx="186.285" cy="237.885" fill="#fff" rx="39.641" ry="32.941" transform="matrix(.371 -.929 .929 .371 -103.717 322.681)"/><ellipse cx="187.33" cy="251.387" fill="#22213f" rx="24.755" ry="21.405" transform="matrix(.138 -.991 .991 .138 -87.472 402.291)"/><path d="m185.384 262.653c-1.303 3.164-5.211 4.653-8.933 3.164s-5.583-5.211-4.281-8.375c1.303-3.164 5.211-4.653 8.933-3.164 3.536 1.489 5.398 5.211 4.281 8.375z" fill="#fff"/><path d="m351.951 222.639c8.561 20.1 1.861 42.247-14.889 49.319s-37.222-3.35-45.783-23.45-1.861-42.247 14.889-49.319c16.75-7.071 37.222 3.351 45.783 23.45z" fill="#fff"/><ellipse cx="323.905" cy="249.098" fill="#22213f" rx="21.406" ry="24.756" transform="matrix(.987 -.16 .16 .987 -35.76 55.177)"/><path d="m309.704 254.836c-1.303 3.164.744 6.886 4.28 8.375 3.722 1.489 7.63 0 8.933-3.164s-.744-6.886-4.28-8.375c-3.722-1.489-7.63 0-8.933 3.164z" fill="#fff"/><path d="m182.034 278.286c-3.722 0-7.444-.744-10.98-2.047-8.561-3.536-15.075-10.794-18.239-20.472s-2.606-20.472 1.489-30.708 11.167-18.425 20.1-23.264 18.611-5.583 27.358-2.233c17.68 7.072 25.311 29.964 16.936 51.18-4.094 10.236-11.167 18.425-20.1 23.264-5.584 2.791-11.167 4.28-16.564 4.28zm8.561-77.421c-4.839 0-9.864 1.303-14.703 3.908-8.189 4.467-14.889 12.097-18.611 21.589-3.722 9.492-4.281 19.541-1.303 28.475 2.792 8.747 8.747 15.261 16.378 18.425 7.63 3.164 16.378 2.419 24.566-2.047 8.189-4.467 14.889-12.097 18.611-21.589 7.817-19.355.931-40.386-15.075-46.899-3.163-1.304-6.513-1.862-9.863-1.862z" fill="#bf4b6f"/><path d="m326.082 275.866c-5.211 0-10.608-1.303-15.633-3.908-8.933-4.653-16.378-12.655-20.658-22.705s-5.025-21.03-2.233-30.708c2.978-9.864 9.305-17.122 17.866-20.844s18.239-3.164 27.358 1.489c8.933 4.653 16.378 12.655 20.658 22.705 4.28 10.05 5.025 21.03 2.233 30.708-2.978 9.864-9.305 17.122-17.866 20.844-3.722 1.675-7.631 2.419-11.725 2.419zm-8.933-77.235c-3.536 0-7.072.744-10.422 2.047-7.63 3.35-13.4 9.864-16.005 18.797-2.606 8.933-2.047 18.983 2.047 28.475 3.908 9.305 10.794 16.936 19.169 21.216 8.189 4.28 16.936 4.653 24.566 1.489 7.63-3.35 13.4-9.864 16.005-18.797 2.606-8.933 2.047-18.983-2.047-28.475-3.908-9.305-10.794-16.936-19.169-21.216-4.653-2.419-9.305-3.536-14.144-3.536z" fill="#bf4b6f"/><path d="m323.477 177.973c-28.159 0-51.333 21.172-54.515 48.472-12.416-5.474-23.355-2.829-29.815-.068-3.214-27.267-26.371-48.404-54.507-48.404-30.336 0-54.902 24.566-54.902 54.902s24.752 54.902 54.902 54.902c29.384 0 53.631-23.337 54.844-52.605 4.316-2.347 15.896-7.245 29.154.168 1.298 29.189 25.511 52.437 54.839 52.437 30.15 0 54.902-24.566 54.902-54.902 0-30.335-24.753-54.902-54.902-54.902zm-138.838 101.988c-25.869 0-46.899-21.03-46.899-46.899s21.03-46.899 46.899-46.899c25.683 0 46.713 21.03 46.899 46.899.001 25.869-21.03 46.899-46.899 46.899zm138.838 0c-25.869 0-46.899-21.03-46.899-46.899s21.03-46.899 46.899-46.899 46.899 21.03 46.899 46.899-21.03 46.899-46.899 46.899z" fill="#ea2a21"/><path d="m323.477 289.277c-29.964 0-54.528-23.22-56.293-53.02-11.491-6.047-21.694-2.45-26.244-.155-1.688 29.888-26.252 53.175-56.3 53.175-31.101 0-56.402-25.302-56.402-56.402s25.302-56.402 56.402-56.402c27.929 0 51.554 20.413 55.735 47.797 6.774-2.531 16.448-4.159 27.359.045 4.16-27.413 27.783-47.842 55.742-47.842 31.101 0 56.402 25.302 56.402 56.402.001 31.101-25.301 56.402-56.401 56.402zm-69.403-59.356c4.603 0 9.826 1.051 15.296 4.109.453.253.743.724.766 1.243 1.272 28.601 24.702 51.004 53.341 51.004 29.446 0 53.402-23.956 53.402-53.402s-23.956-53.402-53.402-53.402c-27.097 0-49.893 20.268-53.024 47.146-.056.473-.332.892-.745 1.128-.414.237-.916.262-1.351.071-11.703-5.16-22.023-2.88-28.62-.061-.433.185-.932.155-1.341-.081-.409-.237-.683-.653-.738-1.123-3.164-26.84-25.956-47.08-53.017-47.08-29.446 0-53.402 23.956-53.402 53.402s23.956 53.402 53.402 53.402c28.724 0 52.156-22.476 53.345-51.167.021-.527.319-1.004.782-1.256 2.781-1.513 8.328-3.933 15.306-3.933zm69.403 51.54c-26.687 0-48.398-21.712-48.398-48.399 0-26.688 21.712-48.399 48.398-48.399 26.688 0 48.399 21.711 48.399 48.399 0 26.687-21.712 48.399-48.399 48.399zm0-93.798c-25.033 0-45.398 20.366-45.398 45.399s20.365 45.399 45.398 45.399 45.399-20.366 45.399-45.399-20.366-45.399-45.399-45.399zm-138.838 93.798c-26.687 0-48.399-21.712-48.399-48.399 0-26.688 21.712-48.399 48.399-48.399 26.496 0 48.207 21.707 48.399 48.388 0 12.922-5.038 25.072-14.188 34.221s-21.299 14.189-34.211 14.189zm0-93.798c-25.033 0-45.399 20.366-45.399 45.399s20.366 45.399 45.399 45.399c12.111 0 23.507-4.727 32.09-13.31s13.31-19.979 13.309-32.089c-.18-25.028-20.546-45.399-45.399-45.399z" fill="#b7130b"/><path d="m464.547 364.268c-12.097 10.794-32.755 14.144-50.622 11.353-22.519-5.025-36.849-5.025-33.127-22.147 9.119-16.75 26.8 2.047 45.783-.372 51.738-.186 10.98-46.155-9.492-61.974-5.211-3.908-6.142-11.353-2.233-16.378 14.144-14.703 29.591 10.422 42.619 24.008 18.052 22.891 27.544 46.155 7.072 65.51z" fill="#ed7e97"/><path d="m435.328 357.196c-20.286 4.094-39.083-10.236-39.083-10.236 5.769 2.419 18.239 5.956 30.522 5.956 8.375 0 16.75-1.675 22.705-6.7 2.233-1.861 3.164-3.908 3.164-6.886-.372-14.703-22.705-38.897-35.175-48.388-5.211-3.908-6.142-11.353-2.233-16.378 3.164-4.094 8.375-5.583 12.841-4.094-19.728 12.655 17.122 35.733 27.73 55.646 10.423 19.727-.185 27.172-20.471 31.08z" fill="#e26988"/><path d="m464.547 364.268c-9.678 8.189-22.519 12.283-37.78 12.283-4.094 0-8.375-.372-12.655-.931-14.703-2.047-26.241-6.7-26.614-6.886 63.649 15.075 87.843-16.75 80.585-40.758-7.072-23.822-39.455-57.135-40.013-57.508 1.303.372 2.419.931 3.536 1.861 6.328 4.839 16.936 14.516 26.241 26.241 11.725 14.889 17.866 28.289 18.239 40.199.186 10.052-3.909 18.985-11.539 25.499z" fill="#f490aa"/><path d="m426.581 378.226c-4.094 0-8.561-.372-13.028-.931-14.33-2.047-26.986-7.072-28.475-7.63-.931-.372-1.303-1.303-.931-2.233.372-.931 1.303-1.303 2.047-.931 1.303.558 13.772 5.583 27.544 7.444 4.28.558 8.561.931 12.469.931 15.075 0 27.358-4.094 36.849-11.911 7.258-6.142 10.98-14.516 10.794-24.194-.372-11.539-6.328-24.752-17.866-39.269-9.119-11.539-19.728-21.216-26.055-25.869-2.233-1.675-4.839-2.233-7.444-1.861-2.606.372-5.025 1.675-6.7 3.908-3.35 4.467-2.419 10.794 2.047 14.144 11.911 8.933 35.361 33.5 35.733 49.691.186 3.536-.931 5.956-3.722 8.189-15.261 13.028-44.852 5.025-54.902.931-.372-.186-.931-.372-1.303-.372-.931-.186-1.489-1.117-1.117-2.047.186-.931 1.117-1.489 2.047-1.117.558.186 1.303.372 1.861.558 9.492 3.908 37.408 11.353 51.552-.558 1.861-1.675 2.606-3.164 2.419-5.583-.372-14.144-22.705-38.152-34.43-47.085-5.956-4.467-7.072-12.841-2.605-18.797 2.233-2.792 5.211-4.653 8.747-5.211s7.072.372 9.864 2.605c6.328 4.839 17.122 14.703 26.614 26.427 11.911 15.075 18.239 29.033 18.611 41.13.372 10.608-3.908 19.914-11.911 26.8-9.49 8.375-23.076 12.841-38.709 12.841z" fill="#bf4b6f"/><path d="m256.461 336.166v91.379l-5.769-1.675-140.14-40.013v-17.122l2.419-3.35 39.455-53.971s22.333-3.536 48.202 0c19.17 2.791 40.572 9.491 55.833 24.752z" fill="#e6ecff"/><path d="m255.547 411.354s-58.996-60.485-145.351-42.619c-.931.186 2.419-3.35 2.419-3.35 28.289-11.353 85.796-.186 107.757 12.469 22.147 12.655 29.964 14.144 24.752-18.797-5.211-32.755-44.294-47.272-44.852-47.458 19.355 2.606 40.758 9.305 56.205 24.566z" fill="#f5f8ff"/><path d="m250.522 425.87-140.14-40.013v-5.769c-.186-.001 98.824-1.862 140.14 45.782z" fill="#c7d1ea"/><path d="m402.387 368.735v17.122l-134.743 38.338-11.353 3.164v-91.379c35.733-35.361 104.221-24.566 104.221-24.566z" fill="#e6ecff"/><path d="m262.805 414.331s22.147-18.983 57.88-31.638 82.446-9.305 82.446-9.305l-.558-4.653s-92.31-15.261-144.234 45.038z" fill="#f5f8ff"/><path d="m402.387 380.087v5.769l-134.743 38.338c19.355-13.585 63.463-38.151 134.743-44.107z" fill="#c7d1ea"/><path d="m257.594 411.354s58.996-60.485 145.351-42.619c.931.186-2.419-3.35-2.419-3.35-28.289-11.353-85.796-.186-107.757 12.469-22.147 12.655-29.964 14.144-24.752-18.797 5.211-32.755 44.294-47.272 44.852-47.458-19.355 2.606-40.758 9.305-56.205 24.566z" fill="#c7d1ea"/><path d="m256.291 429.045c-.14 0-.281-.02-.418-.06l-5.769-1.675-140.134-40.01c-.645-.184-1.088-.772-1.088-1.442v-17.122c0-.315.099-.622.284-.878l2.419-3.351 39.46-53.978c.234-.32.585-.535.977-.597.226-.035 22.851-3.528 48.64-.005 24.478 3.563 43.547 12.034 56.69 25.178.281.281.439.663.439 1.061v91.379c0 .472-.222.916-.6 1.199-.262.197-.579.301-.9.301zm-144.409-44.319 139.052 39.702 3.857 1.12v-88.757c-12.664-12.429-31.011-20.466-54.549-23.893-22.99-3.143-43.416-.609-47.146-.091l-39.083 53.462-2.13 2.951v15.506z" fill="#8196c9"/><path d="m256.291 428.859c-.324 0-.643-.105-.907-.306-.374-.283-.593-.726-.593-1.194v-91.379c0-.4.16-.784.445-1.066 35.858-35.483 104.818-25.092 105.509-24.981.393.062.744.276.978.597l41.875 57.321c.188.257.289.566.289.885v17.122c0 .67-.444 1.26-1.09 1.442l-134.743 38.338-11.36 3.167c-.133.036-.268.054-.403.054zm1.5-92.249v88.773l9.45-2.634 133.646-38.025v-15.5l-41.214-56.415c-6.801-.932-68.759-8.358-101.882 23.801z" fill="#8196c9"/><path d="m241.216 422.776s13.772-20.472 29.964 0c0 0-13.772 17.68-29.964 0z" fill="#e6ecff"/><path d="m256.173 432.134c-5.588 0-10.989-2.804-16.063-8.345-.468-.511-.525-1.275-.139-1.85.258-.384 6.423-9.395 15.685-9.751 5.832-.251 11.453 3.025 16.7 9.657.429.542.432 1.308.007 1.853-.257.329-6.379 8.058-15.521 8.423-.223.009-.446.013-.669.013zm-12.994-9.467c4.382 4.461 8.925 6.638 13.522 6.457 6.047-.231 10.728-4.496 12.513-6.385-4.369-5.183-8.891-7.736-13.427-7.554-6.12.228-10.868 5.327-12.608 7.482z" fill="#8196c9"/><path d="m256.291 434.431c-5.955 0-11.911-2.047-16.75-6.142-87.657-25.683-132.509-38.711-133.626-39.083-1.861-.558-2.792-2.605-2.233-4.467.558-1.861 2.606-2.792 4.467-2.233.744.186 19.355 5.769 133.998 39.269.558.186.931.372 1.303.744l.186.186c7.072 6.328 17.866 6.328 24.939 0 .372-.372.931-.558 1.303-.744 60.858-17.866 132.509-38.711 134.37-39.269s3.908.372 4.467 2.233c.558 1.861-.372 3.722-2.233 4.467-1.489.558-101.801 29.777-133.812 39.269-4.654 3.723-10.609 5.77-16.379 5.77z" fill="#4150d8"/><path d="m256.291 435.931c-6.369 0-12.56-2.231-17.472-6.29-51.29-15.027-87.892-25.713-109.618-32.055-15.979-4.665-23.272-6.794-23.76-6.957-1.251-.374-2.296-1.271-2.899-2.512-.574-1.182-.679-2.535-.296-3.81.388-1.294 1.285-2.339 2.526-2.941 1.183-.574 2.536-.68 3.809-.297.144.034 1.031.296 5.192 1.522 10.635 3.134 42.998 12.673 128.795 37.744.662.219 1.312.492 1.941 1.12l.19.191c6.475 5.788 16.337 5.791 22.876-.061.42-.423.988-.677 1.403-.862.082-.037.16-.071.23-.106.079-.039.161-.071.246-.097 45.179-13.263 95.992-28.076 120.412-35.195 8.362-2.438 13.471-3.927 13.95-4.07 2.713-.814 5.554.639 6.334 3.237.783 2.609-.525 5.255-3.111 6.291-.783.294-20.285 6.002-54.69 16.066-29.402 8.602-62.705 18.343-78.977 23.167-4.812 3.762-11.02 5.915-17.081 5.915zm-149.249-52.081c-.342 0-.668.073-.959.215-.477.231-.819.624-.963 1.105-.164.545-.12 1.141.121 1.637.232.477.624.818 1.105.963.522.171 8.753 2.574 23.696 6.937 21.77 6.354 58.472 17.069 109.921 32.144.201.059.387.159.547.294 4.41 3.732 10.014 5.787 15.781 5.787 5.49 0 11.119-1.983 15.442-5.441.151-.12.324-.211.51-.267 16.174-4.796 49.691-14.601 79.264-23.251 27.474-8.037 53.424-15.628 54.463-15.99 1.102-.441 1.646-1.504 1.309-2.626-.306-1.015-1.473-1.564-2.599-1.227-.481.145-5.599 1.636-13.973 4.077-24.398 7.113-75.144 21.906-120.29 35.16-.068.031-.141.064-.215.098-.19.085-.478.213-.566.302-7.739 6.928-19.321 6.93-27 .058l-.249-.247c-.145-.145-.284-.234-.713-.377-85.748-25.056-118.114-34.596-128.75-37.73-3.402-1.003-4.955-1.46-5.142-1.509-.251-.076-.5-.112-.74-.112z" fill="#31409b"/><path d="m244.939 382.693c-.931 0-1.489-.744-1.861-1.117-.186-.186-.372-.372-.558-.558s-.186-.372-.372-.372c-.558-.931-.744-1.489-.931-1.675-.372.186-.744.186-1.117.186-.558-.186-.931-.372-1.117-.744-.931-1.489-2.233-3.164-3.536-2.792-.372 0-.558.186-.931 0-1.489-.372-2.419-1.675-3.536-3.164-.558-.744-1.303-1.861-1.861-2.233 0 0-.186.186-.186.372-.372.372-.744.558-1.117.744-.558 0-.931 0-1.303-.372-.186-.186-.558 0-1.303.372-1.117.558-2.792 1.117-4.467.372-1.489-.744-2.606-2.233-3.722-5.025-3.722 0-7.444-1.675-11.167-5.025l-.186-.186c-2.233-2.606-4.467-2.792-7.258-2.792-1.489 0-2.978-.186-4.467-.558-.372 0-.558-.186-.744-.372-2.978-2.605-5.955-2.605-9.492-2.605-1.117 0-2.419 0-3.536 0-.186 0-.186 0-.372 0-.744-.186-1.675-.558-2.419-.744-4.094-1.303-8.003-2.419-11.911-1.117-3.722 2.047-7.444 1.303-10.608.558-2.233-.558-4.467-.931-6.514-.558-.931.186-1.861-.372-2.047-1.489-.186-.931.372-1.861 1.489-2.047 2.792-.558 5.397 0 8.003.558 3.164.558 5.769 1.117 8.375-.372 0 0 .186-.186.372-.186 5.025-1.861 10.05-.372 14.33.931.744.186 1.489.372 2.233.744h3.164c3.722 0 7.817-.186 11.725 3.164 1.117.186 2.233.186 3.35.372 3.164.186 6.514.372 9.864 4.094 3.35 2.978 6.514 4.28 9.678 3.908.744 0 1.489.372 1.861 1.117 1.117 3.35 2.047 3.908 2.233 4.094.372.186.744 0 1.675-.372s2.047-.931 3.35-.558c.558-.558 1.303-.744 2.047-.744 2.047 0 3.536 1.861 4.839 3.536.372.558.931 1.303 1.303 1.675 2.047-.372 4.094.744 5.955 3.35.372 0 .558 0 .931.186 1.489.372 2.606 1.861 3.35 3.35l.186.186c.744.186 1.303.931 1.303 1.675 0 1.303-.931 1.861-1.303 1.861-1.302.372-1.488.372-1.674.372z" fill="#8196c9"/><path d="m271.18 379.715c-.931 0-1.861-.744-1.861-1.675 0-1.117.558-1.675.931-1.861.186-.186.558-.186 1.117-.186.186-.186.186-.372.372-.558s.372-.372.558-.558c1.303-1.303 3.35-3.35 6.142-3.536.186 0 .558 0 .744.186.372 0 1.675-1.117 2.419-1.861 1.489-1.303 3.164-2.606 5.025-3.164 1.303-1.117 2.792-2.233 4.653-2.233.186 0 .558-.186.744-.186.931-.186 1.675-.372 2.419-1.117.372-.931.931-2.047 2.047-2.605 1.117-.558 2.233 0 2.792.186s0-.186.186-.186c1.489-1.861 3.164-1.675 4.094-1.489.744 0 .931 0 1.117-.186.558-.744 1.675-.744 2.419-.186.372.372.744.186 2.419-.931.372-.186.744-.372 1.117-.558 0 0 .186 0 .186-.186.558-.186.931-.558 1.489-.744 1.489-.744 3.164-1.675 5.211-1.489h.372c.558.186 1.489-.186 2.233-.558s1.675-.744 2.792-.931c1.675-.931 4.094-2.419 6.7-1.675.372-.372.931-.744 1.489-1.117 1.489-1.117 2.978-2.419 4.653-2.792 2.419-1.861 4.839.186 6.142 1.303.372.372.931.744 1.303.931 2.047-1.117 4.28-.744 5.769-.372.558.186 1.117.186 1.675.372h3.164c1.303 0 2.792-.186 4.28 0 .186 0 .372.186.744.186.931.558 1.861.372 3.164.186 1.117-.186 2.233-.186 3.536 0 2.419-.372 5.397-.372 8.375 1.303.931.558 1.117 1.489.744 2.419-.558.931-1.489 1.117-2.419.744-2.233-1.303-4.467-1.117-6.514-.744-.186 0-.558 0-.744 0-.744-.186-1.675-.186-2.606 0-1.489.186-3.164.372-5.025-.558-1.117-.186-2.233 0-3.35 0s-2.233 0-3.536 0c-.744 0-1.489-.186-2.233-.372-1.675-.372-2.606-.558-3.722.372-.372.372-.931.372-1.489.372-1.303-.186-2.419-1.117-3.35-1.861-.558-.372-1.489-1.117-1.675-1.117 0 0 0 0-.186.186-.372.372-.744.558-1.117.558-.931 0-2.047 1.117-3.164 2.047-.744.744-1.675 1.489-2.606 1.861-.558.372-1.117.372-1.675 0-1.303-.558-2.605 0-4.653 1.303-.186.186-.558.186-.931.186-.558 0-1.303.372-2.047.558-1.303.558-2.792 1.117-4.467.744-.744 0-1.861.558-2.978 1.117-.558.372-1.117.558-1.861.931-.186.186-.558.372-.744.558-1.303.931-3.35 2.047-5.211 1.489-1.117.744-2.233.558-2.978.558-.744 0-.744 0-.931.186-1.117 1.675-2.606 2.233-4.467 1.303 0 .186-.186.372-.186.558s-.186.372-.372.558c-1.675 2.047-3.35 2.233-4.653 2.419-.186 0-.558 0-.744.186-.186 0-.372 0-.558 0-.744 0-1.861.931-2.792 1.675-.186.186-.558.372-.931.372-1.117.186-2.606 1.303-3.722 2.419-1.675 1.489-3.536 2.978-5.583 2.605-1.303.186-2.605 1.489-3.722 2.419-.186.186-.186.186-.372.372-.372.744-.931 1.675-2.047 1.861-.372.186-.744.186-.931 0 .003.003.003.003-.183.003z" fill="#8196c9"/><path d="m274.902 351.613c-.931 0-1.675-.558-2.047-1.303-.744-.372-1.303-1.117-1.117-2.047.186-1.303 1.303-1.675 1.489-1.675.558 0 .931 0 1.117.186.186-.558.931-1.117 1.489-1.117h.558c.186-.186.372-.558.558-.931.744-1.303 1.675-3.536 3.722-3.35 1.489 0 2.233 1.303 2.606 2.233 0-.186.186-.186.186-.372.186-.558.558-.931.744-1.489 1.117-1.675 2.233-3.908 4.467-3.722 1.117 0 1.861.558 2.605 1.675 2.233.558 4.839-.558 7.63-3.164l.186-.186c2.047-1.489 4.28-1.303 5.956-1.117 1.861.186 3.164.186 4.653-1.117.372-.372.931-.558 1.489-.558 1.303.186 2.605-.186 4.094-.558l.744-.186c1.861-.558 4.28-.931 6.514 0 .931.372 1.303 1.489.931 2.233-.372.931-1.489 1.303-2.233.931-1.117-.558-2.419-.372-4.28.186l-.744.186c-1.489.372-2.978.744-4.653.744-2.419 1.861-4.653 1.675-6.7 1.489-1.675-.186-2.605-.186-3.722.558-4.094 3.722-8.003 4.839-11.725 3.536-.372-.186-.744-.372-.931-.931 0 0 0-.186-.186-.186-.372.558-.931 1.489-1.117 1.861s-.372.744-.744 1.303c-.931 1.675-1.861 3.536-3.722 3.35-1.489-.186-2.047-1.489-2.419-2.419 0 .186-.186.186-.186.372-.744 1.675-1.675 3.35-3.164 3.536-.372.744-1.117 1.489-2.047 1.489.185.56-.001.56-.001.56z" fill="#8196c9"/><path d="m215.533 347.146c-.931 0-1.675-.558-2.233-1.303-1.489 0-2.606-1.675-3.536-3.164-.186-.186-.186-.372-.186-.372-.186.931-.744 2.419-2.047 2.606-1.861.372-2.978-1.303-4.094-2.978-.186-.372-.558-.744-.744-1.117-.186-.372-.931-1.117-1.489-1.675v.186c-.186.372-.558.744-.931.931-3.536 1.675-7.444.931-12.097-2.233-1.117-.558-2.233-.372-3.722 0-1.861.372-4.281.744-6.886-.744-1.675.186-3.164 0-4.653-.186l-.744-.186c-1.861-.186-3.164-.186-4.281.372-.931.558-1.861.186-2.419-.744s-.186-1.861.744-2.419c2.233-1.303 4.467-1.117 6.514-.744l.744.186c1.489.186 2.978.372 4.094 0 .558-.186 1.117 0 1.489.372 1.489 1.117 2.978.931 4.653.558 1.675-.372 3.908-.744 6.142.372 0 0 .186 0 .186.186 3.164 2.233 5.769 2.978 8.003 2.233.558-1.117 1.489-1.861 2.419-2.047 2.047-.372 3.536 1.675 4.839 3.164.372.372.558.931.931 1.303 0 0 .186.186.186.372.372-.931.931-2.233 2.419-2.419 1.861-.372 3.164 1.675 4.094 2.978.186.372.372.744.558.931.186 0 .372-.186.558-.186.744 0 1.303.186 1.675.931.372-.186.744-.372 1.117-.372.372 0 1.303.186 1.675 1.489.186.744-.186 1.675-.744 2.047-.559.928-1.117 1.672-2.234 1.672z" fill="#8196c9"/><path d="m382.101 352.729c.372.372.744.558 1.117.931.744.558 1.675.744 2.605.931 9.119.744 15.261 8.561 15.447 8.747 2.047 2.606 5.583 2.978 8.189 1.117 2.605-2.047 2.978-5.583 1.117-8.189-.186-.186-7.63-4.653-9.864-6.7-1.861-1.675 2.047-.931-.931-2.606-3.536-2.047-7.817-3.722-12.655-4.094s0 0-.186 0c-.744 0-1.489 0-2.233.186-2.233.744-3.908 2.606-4.094 5.211-.187 1.675.371 3.35 1.488 4.466z" fill="#ed7e97"/><path d="m382.101 352.729c0-4.839 6.328-5.955 11.539-6.142 3.164 0 5.956.186 6.142.372l-9.678-2.419-5.397-1.303c-2.233.744-3.908 2.605-4.094 5.211-.187 1.49.371 3.165 1.488 4.281z" fill="#f490aa"/><path d="m402.387 365.013c-.558 0-.931-.186-1.303-.558s-7.072-7.444-15.447-8.189c-1.303-.186-2.419-.558-3.35-1.117-2.419-1.489-3.722-4.094-3.35-6.886.372-4.094 3.908-7.258 8.189-6.886 7.072.558 13.586 4.467 16.936 6.886.744.558.931 1.489.372 2.233-.558.744-1.489.931-2.233.372-2.978-2.047-9.119-5.769-15.447-6.328-2.233-.186-4.28 1.489-4.467 3.908-.186 1.489.558 2.978 1.861 3.908.558.372 1.303.558 1.861.744 9.864.744 17.68 9.305 17.68 9.492.558.744.372 1.675-.372 2.233-.186.001-.558.188-.93.188z" fill="#bf4b6f"/><path d="m125.085 335.235c-53.785 40.944-96.032 21.03-77.98-52.669 7.817-26.241 7.63-47.644 27.916-38.338 7.817 7.63 4.281 11.167.744 22.519-5.769 15.819-13.028 53.785-6.514 63.277 8.375 8.933 29.033-5.397 40.199-12.283 10.982-8.189 25.126 7.63 15.635 17.494z" fill="#ed7e97"/><path d="m112.988 343.424c-2.419 1.489-5.211 2.978-8.189 4.467-15.075 7.444-27.916 10.05-38.152 7.63-8.189-2.047-14.516-7.072-18.425-14.889-6.328-12.841-6.7-32.197-1.117-58.066 3.908-17.866 9.492-32.569 9.678-33.127 2.233-6.142 9.119-9.119 15.075-6.886 1.117.372 2.047.931 2.978 1.675s-9.678-1.117-14.516 18.053c-4.839 19.169-15.447 65.138-.744 81.702 14.701 16.563 52.667-.187 53.412-.559z" fill="#f490aa"/><path d="m104.054 321.463c-37.594 30.15-42.991 17.308-42.619-11.539.558-28.661 16.75-61.788 16.75-61.788l1.117 2.978c.372 2.047.372 4.28-.558 6.514 0 0-1.303 3.536-3.164 8.933-1.675 5.583-3.908 13.028-5.769 21.216-4.281 19.355-4.467 34.616-.744 42.061.931 1.675 1.675 2.233 2.978 2.605 7.443 2.048 21.773-4.652 32.009-10.98z" fill="#e26988"/><path d="m74.649 357.94c-2.978 0-5.769-.372-8.375-.931-8.747-2.047-15.447-7.63-19.541-15.633-6.514-13.028-6.886-32.941-1.117-58.996 4.094-18.053 9.492-32.755 9.864-33.313 2.606-6.886 10.422-10.422 17.308-7.817s10.422 10.422 7.817 17.308c0 .186-5.211 13.772-8.747 29.964-4.094 18.983-4.467 33.872-.931 40.944.744 1.303 1.117 1.489 1.861 1.675 6.886 1.675 22.333-5.397 33.5-12.841.744-.558 1.861-.372 2.233.372.558.744.372 1.861-.372 2.233-8.375 5.583-26.614 15.633-36.105 13.4-1.861-.558-3.164-1.489-4.094-3.35-3.908-7.817-3.722-23.45.744-43.177 3.722-16.564 8.747-30.336 8.933-30.522 2.047-5.211-.744-10.98-5.769-13.028-5.211-2.047-10.98.558-13.028 5.769-.186.558-5.769 15.075-9.678 32.941-5.583 25.311-5.397 44.48.931 56.949 3.722 7.258 9.678 12.097 17.308 13.958 9.864 2.419 22.333-.186 37.036-7.444 10.05-5.025 17.866-10.608 18.239-10.794.558-.372 1.117-.931 1.489-1.489.744-.744 1.303-1.675 1.675-2.605.372-.744 1.303-1.117 2.233-.744.744.372 1.117 1.303.744 2.233-.558 1.303-1.175 2.61-2.105 3.541-.558.744-2.175 1.67-2.175 1.67-.931.558-8.561 6.142-18.611 11.167-11.912 5.769-22.334 8.56-31.267 8.56z" fill="#bf4b6f"/><path d="m132.343 338.027 16.005-16.006 5.956 14.331 5.397 13.027-13.028-5.397z" fill="#ffca3b"/><path d="m146.673 343.982c.931-1.489 1.861-2.978 3.164-4.467 1.303-1.303 2.792-2.419 4.281-3.35l5.397 13.028z" fill="#ea2a21"/><path d="m159.128 349.638c-.966-2.177-12.677-4.112-12.863-4.298l-14.48-5.825c-.558-.186-.931-.744-.931-1.117-.186-.558 0-1.117.372-1.489l16.005-16.005c.372-.372.931-.558 1.489-.372s.931.558 1.117.931l5.631 14.237c.186.558 5.026 12.189 4.468 12.747-.187.186-.658 1.531-.808 1.191zm-24.707-12.504 23.345 10.93-10.564-23.977z" fill="#e29700"/><path d="m88.582 232.992h22.705v113.71h-22.705z" fill="#ea2a21" transform="matrix(.705 -.709 .709 .705 -176.024 156.261)"/><path d="m132.232 339.495c-.383 0-.765-.146-1.058-.437l-80.609-80.2c-.587-.584-.589-1.534-.005-2.122l16.014-16.096c.281-.282.662-.441 1.06-.442.391.004.78.156 1.062.437l80.61 80.2c.282.28.441.662.442 1.06s-.156.78-.437 1.062l-16.014 16.096c-.295.295-.679.442-1.065.442zm-78.488-81.706 78.483 78.085 13.898-13.969-78.483-78.085z" fill="#b7130b"/><path d="m139.596 331.085c-.372 0-.181.428-.367.056l-80.771-80.213c-.558-.558-.558-1.675 0-2.233s1.675-.558 2.233 0l80.585 80.213c.558.558-.186 1.066-.744 1.624-.186.372-.564.553-.936.553z" fill="#b7130b"/><path d="m44.314 252.79 18.61-18.239 5.956 6.142-18.239 18.238z" fill="#e6ecff"/><path d="m39.661 229.898c4.467-4.467 11.539-4.467 16.005 0l5.955 5.955-16.005 16.005-5.955-5.956c-4.467-4.466-4.467-11.724 0-16.004z" fill="#ffca3b"/><path d="m45.616 253.533c-.372 0-.931-.186-1.117-.558l-5.955-5.955c-5.025-5.025-5.025-13.214 0-18.425 5.025-5.025 13.214-5.025 18.425 0l5.955 5.956c.558.558-.004 1.061-.562 1.619l-16.468 15.688c-.372.558.281 1.675-.278 1.675zm2.047-25.496c-2.419 0-5.025.931-6.886 2.792-3.722 3.722-3.722 9.864 0 13.772l6.01 5.973 13.957-13.404-6.382-6.341c-1.86-1.862-4.279-2.792-6.699-2.792z" fill="#e29700"/><path d="m127.318 299.13c-.186.744-.372 1.489-.744 2.047s-.744 1.117-1.303 1.489c-.931.744-1.861 1.489-2.606 2.419-.931 1.117-1.675 2.047-2.233 3.164-1.117 1.861-1.489 3.536-1.675 5.025-.372 2.605.186 4.467.186 4.839l-5.769 8.933-5.397-5.211c-.186-.372-1.117-3.35-.931-7.817.186-5.769 2.419-13.586 11.167-20.472 2.606-2.047 6.142-1.675 8.189.931.93 1.489 1.302 3.164 1.116 4.653z" fill="#ed7e97"/><path d="m136.437 303.969c.372 1.675 0 3.536-.931 5.025-.372.372-.744.744-1.117 1.117-.558.372-.931.744-1.489 1.303-1.117.931-2.047 2.047-2.792 2.978-3.35 4.467-3.908 8.375-3.908 9.119l-13.214 8.933 1.489-9.119c0-.186 0-1.489.558-3.722.372-1.489.931-3.536 1.861-5.583.186-.558.558-1.303.931-1.861 1.303-2.419 3.164-5.211 5.769-7.817.931-.931 1.861-1.861 2.978-2.792.186-.186.558-.372.744-.558 2.606-2.047 6.328-1.489 8.189 1.117.56.371.746 1.115.932 1.86z" fill="#ed7e97"/><path d="m142.765 317.183c-.186.372-.558.744-.744 1.117-.558.744-1.489 1.303-2.419 1.489-8.561 3.164-12.469 12.283-12.469 12.469 0 0-6.328 3.35-7.63 3.164-3.164-.372-4.467-4.653-3.164-7.63 0-.186.931-2.047 2.419-4.653 1.303-2.047 3.164-4.653 5.583-7.072 2.792-2.792 6.514-5.583 11.167-7.258.744-.186 1.489-.372 2.047-.372 2.419 0 4.467 1.489 5.397 3.908.744 1.674.557 3.349-.187 4.838z" fill="#ed7e97"/><path d="m126.015 294.663s-14.33 4.094-19.355 19.541c.186-5.769 2.419-13.586 11.167-20.472 2.605-2.046 6.327-1.674 8.188.931z" fill="#f490aa"/><path d="m136.437 303.969c-.372.186-6.328-1.489-17.866 9.492-.558.558-1.489.372-1.675.372-.558 0-.372-.558.931-1.861.186-.186 1.117-1.489 2.606-3.536.744-.931 1.489-1.861 2.233-3.164.186-.372.558-.744.744-1.117 1.117-1.489 2.419-3.164 3.908-4.839-.186.744-.372 1.489-.744 2.047.186-.186.558-.372.744-.558 2.606-2.047 6.328-1.489 8.189 1.117.558.558.744 1.302.93 2.047z" fill="#f490aa"/><path d="m142.765 317.183c-1.303-4.839-7.817-4.094-12.655-2.978-3.164.744-5.583 1.861-5.769 1.861l8.561-4.839 4.839-2.792c2.419 0 4.467 1.489 5.397 3.908.558 1.676.371 3.351-.373 4.84z" fill="#f490aa"/><path d="m107.032 321.277c-.744 0-1.489-.558-1.675-1.303-.931-4.839-1.489-17.308 11.353-27.544 1.489-1.303 3.536-1.861 5.583-1.675s3.722 1.303 5.025 2.792c2.047 2.419 2.233 5.956.558 8.561-.558.744-1.489.931-2.233.558-.744-.558-.931-1.489-.558-2.233.931-1.489.744-3.536-.372-4.839-.744-.931-1.675-1.489-2.792-1.489-1.117-.186-2.233.186-3.164.931-11.353 9.119-10.98 20.1-10.236 24.38.149 1.329-.938 1.863-.938 1.863s-.365-.002-.551-.002z" fill="#bf4b6f"/><path d="m116.151 317.369c-.186 0-.372 0-.558-.186-.931-.372-1.303-1.303-.931-2.047 1.489-4.28 4.839-10.422 11.725-15.633 1.675-1.303 3.536-1.675 5.583-1.489s3.722 1.303 5.025 2.792c2.047 2.605 2.457 5.676.596 8.281-.558.744-1.899 1.583-2.643 1.024-.744-.558-.931-1.489-.372-2.233 1.117-1.489 1.117-3.536 0-5.025-.744-.931-1.675-1.489-2.792-1.675s-2.233.186-3.164.931c-6.328 4.839-9.305 10.422-10.608 14.144-.558.557-1.302 1.116-1.861 1.116z" fill="#bf4b6f"/><path d="m125.085 336.91c-.186 0-.372 0-.744-.186-.744-.372-1.436-.694-1.25-1.438 0-.186 6.461-13.45 15.766-16.987.744-.186 1.303-.558 1.675-1.117 1.117-1.117 1.303-2.792.931-4.28-.372-1.117-1.117-1.861-2.233-2.419-1.117-.558-2.233-.558-3.164-.186-4.467 1.675-8.561 4.467-12.097 8.375-.558.744-1.675.744-2.233.186-.744-.558-.744-1.675-.186-2.233 3.908-4.28 8.375-7.444 13.4-9.305 1.861-.744 3.908-.558 5.769.186 1.861.931 3.164 2.419 3.908 4.28.931 2.606.372 5.583-1.489 7.63-.744.931-1.861 1.675-2.978 2.047-7.817 2.792-12.669 13.805-12.577 13.966 0 .001-1.94 1.481-2.498 1.481z" fill="#bf4b6f"/><path d="m227.072 281.078s-11.725 3.908-11.539 13.586c.186 9.864 16.564 5.583 22.705-1.303l-6.514-5.211z" fill="#ea2a21"/><path d="m222.419 302.294c-1.489 0-2.605-.186-3.908-.558-2.978-1.117-4.653-3.536-4.653-6.886-.186-10.98 12.097-15.075 12.655-15.261.744-.186 1.489 0 1.861.744l3.35 7.817 7.445 4.28c.372.372.558.744.558 1.117 0 .372-.186.931-.372 1.303-4.094 4.28-11.352 7.444-16.936 7.444zm5.007-19.975c-2.792 1.303-10.403 5.645-10.217 12.345 0 2.047.931 3.164 2.606 3.908 3.908 1.489 12.208-1.206 16.674-5.114l-5.694-3.633c-.186-.186-.186-.186-.372-.372z" fill="#b7130b"/><path d="m216.65 300.061c-.558 0-.931-.186-1.303-.744-.558-.744-.372-1.675.372-2.233.372-.372 9.305-6.886 15.075-10.05.744-.372 1.861-.186 2.233.744.372.744.186 1.861-.744 2.233-5.583 2.978-14.703 9.864-14.703 9.864-.185-.001-.558.186-.93.186z" fill="#b7130b"/><path d="m256.291 415.18c-.396 0-.792-.156-1.086-.466-.29-.304-29.459-30.556-69.86-41.573-40.42-11.021-74.271-3.028-74.607-2.948-.804.195-1.616-.297-1.812-1.103-.196-.805.297-1.615 1.102-1.812.346-.084 34.907-8.267 76.107 2.968 41.23 11.244 70.949 42.089 71.244 42.399.571.6.548 1.549-.052 2.12-.292.277-.664.415-1.036.415z" fill="#8196c9"/><path d="m248.764 417.317c-.319 0-.64-.102-.913-.311-60.193-46.211-136.58-40.451-137.345-40.384-.826.05-1.55-.545-1.619-1.37-.069-.826.544-1.551 1.37-1.62.777-.062 78.288-5.938 139.421 40.995.657.504.781 1.445.276 2.103-.295.385-.74.587-1.19.587z" fill="#8196c9"/><path d="m244.178 420.836c-.252 0-.507-.063-.742-.197-59.637-34.021-132.422-39.008-133.15-39.054-.827-.053-1.454-.766-1.402-1.593.053-.826.761-1.452 1.592-1.401.735.047 74.191 5.068 134.446 39.442.72.41.97 1.326.56 2.046-.276.485-.783.757-1.304.757z" fill="#8196c9"/><path d="m256.292 415.18c-.372 0-.744-.137-1.034-.414-.6-.57-.624-1.521-.052-2.12.295-.311 30.014-31.155 71.244-42.399 41.203-11.235 75.763-3.051 76.106-2.968.805.196 1.298 1.007 1.102 1.812-.195.806-1.005 1.302-1.813 1.103-.336-.081-34.188-8.075-74.606 2.948-40.433 11.026-69.57 41.27-69.86 41.573-.296.308-.691.465-1.087.465z" fill="#8196c9"/><path d="m263.819 417.317c-.45 0-.896-.202-1.19-.587-.505-.657-.381-1.599.276-2.103 61.132-46.934 138.644-41.058 139.42-40.995.825.069 1.438.794 1.37 1.62-.069.825-.763 1.426-1.62 1.37-.766-.068-77.152-5.826-137.344 40.384-.272.21-.592.311-.912.311z" fill="#8196c9"/><path d="m268.403 420.836c-.521 0-1.027-.271-1.304-.757-.411-.72-.16-1.636.56-2.046 60.255-34.374 133.711-39.396 134.446-39.442.838-.05 1.539.575 1.592 1.401.053.827-.575 1.54-1.401 1.593-.729.046-73.513 5.032-133.15 39.054-.235.133-.491.197-.743.197z" fill="#8196c9"/><path d="m251.895 297.649c-.014 0-.027 0-.041-.001-26.562-.713-26.473-21.6-26.469-21.811.015-.828.719-1.46 1.528-1.472.827.016 1.485.698 1.472 1.524-.01.748.033 18.128 23.549 18.76.828.021 1.481.711 1.459 1.539-.022.816-.689 1.461-1.498 1.461z" fill="#bf4b6f"/><path d="m50.641 260.431c-.377 0-.753-.141-1.044-.424l-6.327-6.141c-.291-.281-.455-.668-.456-1.072-.001-.405.161-.792.45-1.075l18.61-18.239c.285-.279.668-.412 1.069-.429.399.005.78.169 1.058.456l5.956 6.142c.571.588.563 1.526-.016 2.105l-18.239 18.238c-.293.292-.677.439-1.061.439zm-4.179-7.646 4.163 4.041 16.149-16.148-3.878-3.999z" fill="#8196c9"/><path d="m159.515 350.693c-.189 0-.381-.036-.563-.11l-12.842-5.211c-.411-.166-.727-.506-.863-.928s-.079-.883.156-1.258l.583-.926c1.91-3.005 4.431-5.542 7.292-7.338.375-.233.854-.305 1.276-.173.42.135.783.433.952.841l5.397 13.028c.231.559.105 1.202-.321 1.631-.29.29-.675.444-1.067.444zm-10.605-7.422 7.847 3.185-3.313-7.998c-1.731 1.325-3.266 2.956-4.534 4.813z" fill="#b7130b"/></g></g></svg>