<?xml version="1.0" encoding="UTF-8"?>
<!-- Generator: Adobe Illustrator 26.0.1, SVG Export Plug-In . SVG Version: 6.00 Build 0)  -->
<svg xmlns="http://www.w3.org/2000/svg" xmlns:xlink="http://www.w3.org/1999/xlink" version="1.1" id="Capa_1" x="0px" y="0px" viewBox="0 0 512 512" style="enable-background:new 0 0 512 512;" xml:space="preserve" width="512" height="512">
<g>
	<path style="fill:#FFFFFF;" d="M26.141,512c-8.095,0-14.658-6.563-14.658-14.658v-134.58c-0.017-0.277-0.024-0.556-0.024-0.835   c0-6.861-0.069-13.744-0.139-20.629l-0.081-7.732c-0.226-17.051-0.482-36.428,0.053-55.526l0.007-0.279   c0.026-1.105,0.053-2.226,0.1-3.328c0.193-6.024,0.527-12.537,1.019-19.747L0.351,121.759c-0.432-5.124,1.281-10.142,4.693-13.854   c3.405-3.705,8.24-5.828,13.267-5.828h46.123c30.788-43.261,72.431-74.383,120.879-90.236C209.305,3.984,234.152,0,259.162,0   c44.804,0,89.108,12.78,128.119,36.962c38.926,24.127,70.785,58.496,92.133,99.388c2.145,4.051,4.342,8.536,6.683,13.646   c0.076,0.167,0.532,1.19,0.656,1.484c16.331,36.306,24.962,75.893,24.962,114.485v231.377c0,8.095-6.563,14.658-14.658,14.658   H26.141z"/>
	<g>
		<g>
			<g>
				<path style="fill:#AE85A6;" d="M498.303,265.966v69.357L80.538,457.302l-53.32-116.824c-0.024-2.345-0.049-4.715-0.073-7.06      c-0.244-18.347-0.464-36.694,0.049-54.968c0.024-1.124,0.049-2.272,0.098-3.396c0.293-9.088,0.782-18.127,1.539-27.142      c0.098-0.879,0.171-1.735,0.244-2.614C37.161,148.262,95.867,56.943,191.12,25.77C300.273-9.971,415.656,43.506,467.668,143.132      c2.248,4.251,4.349,8.599,6.352,12.972c0.171,0.415,0.366,0.806,0.537,1.221C489.948,191.479,498.303,228.808,498.303,265.966z"/>
			</g>
		</g>
		<path style="fill:#BACDE5;" d="M498.303,335.323v28.194l-10.175,17.272l10.175,23.939v92.614H27.389V362.758    c0-0.269,0-0.537-0.024-0.831c0-7.134-0.073-14.292-0.147-21.45L498.303,335.323z"/>
		<g>
			<g>
				<g>
					<path style="fill:#FFE8D1;" d="M260.223,390.479l-16.979,3.225c-0.342,0.049-0.684,0.049-1.002-0.024l-42.655-9.943       c-0.757-0.171-1.344-0.66-1.637-1.295c-0.244-0.489-0.318-1.075-0.171-1.637l10.261-43.046l10.19-14.066l11.602,2.975       l-1.393,46.441l-0.049,1.344l32.174,11.336C262.935,386.619,262.666,390.014,260.223,390.479z"/>
					<polygon style="fill:#5A2250;" points="230.052,319.29 229.832,326.667 208.041,337.759 212.902,317.36      "/>
				</g>
				<g>
					<g>
						<path style="fill:#FFE8D1;" d="M16.196,120.436l16.54,182.179c0,0,335.898,19.189,372.272,19.529        c2.004,0,3.533-1.664,3.43-3.634l-0.985-14.808l-12.431-183.809c-0.136-1.766-1.596-3.159-3.396-3.159H19.559        C17.589,116.734,16.027,118.432,16.196,120.436z"/>
						<path style="fill:#FF9FC6;" d="M32.736,302.615l1.766,19.257c0.17,1.766,1.63,3.125,3.396,3.091        c33.76-0.305,330.735-3.159,367.11-2.819c2.004,0,3.533-1.664,3.43-3.634l-0.985-14.808L32.736,302.615z"/>
						<polygon style="fill:#FF9FC6;" points="26.827,125.7 27.438,131.202 392.069,295.619 397.978,295.652 385.854,126.277               "/>
						<polygon style="fill:#5A2250;" points="27.438,131.202 45.915,293.92 392.069,295.619 380.351,131.78       "/>
					</g>
				</g>
				<path style="fill:#FFE8D1;" d="M234.627,313.483c0,4.392-3.561,7.953-7.953,7.953c-4.392,0-7.953-3.56-7.953-7.953      c0-4.392,3.561-7.953,7.953-7.953C231.066,305.531,234.627,309.091,234.627,313.483z"/>
				<path style="opacity:0.43;fill:#BACDE5;" d="M260.223,390.479l-16.979,3.225c-0.342,0.049-0.684,0.049-1.002-0.024      l-42.655-9.943c-0.757-0.171-1.344-0.66-1.637-1.295c7.622-2.296,22.989-6.938,30.489-9.332l-0.049,1.344l32.174,11.336      C262.935,386.619,262.666,390.014,260.223,390.479z"/>
			</g>
			<g>
				<path style="fill:#BACDE5;" d="M153.611,178.774c-0.333-0.866-0.668-1.828-0.668-2.632c0-1.395,0.806-2.14,2.397-2.14      c0.726,0,1.433,0.155,2.061,1.864c4.086,11.41,6.069,17.143,7.482,21.504c1.493-4.282,2.494-7.521,4.026-11.528      c-0.589-1.198-2.003-5.713-2.612-6.931c-0.471-0.846-0.863-1.768-0.863-2.435c0-1.69,0.647-2.359,2.356-2.359      c1.178,0,1.63,0.866,3.182,5.047c0.176,0.452,0.353,1.276,0.53,1.749c0.51-1.119,1.139-3.121,1.551-4.594      c0.236-1.004,0.648-2.336,2.417-2.336c1.334,0,2.179,0.942,2.179,2.336c0,0.726-0.373,1.549-0.786,2.356      c-1.119,2.277-2.022,4.378-2.945,6.714c1.217,3.124,2.238,6.129,4.34,12.099c2.395-6.855,4.34-13.687,6.932-20.444v0.02      c0.315-1.591,0.904-3.006,2.592-3.006c1.473,0,2.277,0.827,2.277,2.143c0,0.962-0.195,1.473-0.609,2.494      c-3.221,8.109-5.459,14.767-8.739,24.29c0.039,0.118,0,0.177,0,0.315c0,1.158-0.863,2.123-2.651,2.123      c-1.393,0-1.708-0.964-1.944-1.867v0.02c-0.569-1.828-1.158-3.239-1.747-4.85c-0.942-2.612-1.885-5.579-2.886-8.23      c-1.08,3.085-2.711,8.466-4.242,12.529c0.04,0.236,0.04,0.512,0.04,0.59c0,1.198-1.199,1.808-2.476,1.808      c-1.767,0-2.12-1.631-2.277-2.553C159.562,194.66,155.575,183.86,153.611,178.774z"/>
				<path style="fill:#BACDE5;" d="M207.833,173.924c8.778,0,13.551,6.419,13.551,15.729c0,8.837-5.342,15.751-13.707,15.751      c-8.347,0-13.707-6.914-13.707-15.751C193.97,180.343,199.488,173.924,207.833,173.924z M207.736,201.397      c6.186,0,9.151-5.854,9.151-11.745c0-6.265-2.886-11.685-9.151-11.685c-5.912,0-9.29,4.676-9.29,11.685      C198.446,195.543,201.824,201.397,207.736,201.397z"/>
				<path style="fill:#BACDE5;" d="M228.39,201.043c0-10.898,0-16.28,0.02-22.898c-0.136-0.371-0.274-1.119-0.274-1.687      c0-1.122,0.707-2.28,2.081-2.28c1.081,0,2.181,0.197,3.575,0.197c1.158,0,2.336-0.177,3.652-0.197      c7.894,0,13.02,3.045,13.02,10.133c0,6.678-4.123,10.409-7.541,11.784c0.452,2.809,2.062,5.165,4.753,5.165      c1.001,0,1.846-0.256,2.435-1.158c0.373-0.531,0.864-1.001,1.669-1.001c1.414,0,2.24,0.883,2.24,2.081      c0,2.238-2.651,4.223-6.697,4.223c-5.577,0-7.894-5.263-8.601-8.525c-0.648,0-2.2,0-2.906-0.02      c-0.766-0.02-2.003-0.039-2.927-0.039v2.868c0.039,1.218,0.433,2.376,0.433,3.593c0,1.493-1.355,2.123-2.357,2.123      c-1.551,0-2.689-1.142-2.689-2.75C228.273,202.083,228.332,201.515,228.39,201.043z M237.13,192.717      c7.089,0,8.7-4.223,8.7-8.584c0-5.713-5.951-5.89-8.798-5.89c-1.336,0-2.671,0.059-4.263,0.078      c-0.077,2.005-0.077,3.085-0.077,5.067c0,3.534,0.038,5.989,0.176,9.211C234.242,192.658,236.775,192.717,237.13,192.717z       M242.039,196.389h0.02H242.039z M242.059,196.389l0.02-0.02C242.059,196.37,242.059,196.389,242.059,196.389z"/>
				<path style="fill:#BACDE5;" d="M259.038,176.437c0-1.788,0.766-2.514,2.376-2.514c1.198,0,2.278,0.765,2.278,2.022      c0,3.751-0.02,7.01-0.039,10.448l10.468-9.897c0.589-0.846,2.632-2.573,3.711-2.573c1.198,0,2.258,0.607,2.258,2.14      c0,1.611-1.099,2.317-2.179,2.947c-3.712,3.298-7.58,6.459-11.488,9.759c3.457,0.942,6.775,4.752,8.758,7.836      c1.532,2.376,2.985,4.516,4.32,4.516c1.081,0,2.947,0,2.947,1.943c0,2.162-1.944,2.339-3.575,2.339      c-3.004,0-5.301-3.399-7.482-6.697c-1.964-3.006-4.752-6.324-7.758-7.108v2.198c0,2.925,0.02,5.713,0.04,7.836      c0.078,0.726,0.098,1.257,0.118,1.785c0,1.355-0.942,1.985-2.475,1.985c-0.687,0-2.179-0.394-2.179-2.398      C259.137,194.148,259.098,185.314,259.038,176.437z"/>
				<path style="fill:#BACDE5;" d="M160.661,227.225c-1.826,0-3.751,0.039-6.068,0.039c-1.276,0-1.885-1.276-1.885-2.415      c0-1.552,0.804-2.044,2.748-2.044h15.671c1.061,0,2.377,0.472,2.377,2.179c0,1.276-0.884,2.339-1.984,2.359      c-0.413,0-0.805-0.118-1.237-0.118h-5.067l-0.059,22.15c0,0.63,0.138,1.198,0.138,1.904c0,1.142-0.315,2.457-2.376,2.457      c-2.397,0-2.298-1.808-2.298-3.222L160.661,227.225z"/>
				<path style="fill:#BACDE5;" d="M179.949,247.529c0-6.675-0.177-13.353-0.177-20.48c0-0.729-0.235-1.454-0.235-2.317      c0-1.375,0.629-2.494,3.004-2.494c1.178,0,1.905,0.981,1.905,2.454c0,0.45-0.098,0.863-0.177,1.336      c-0.039,2.238-0.079,4.752-0.079,8.089c0,5.989,0.079,12.746,0.354,16.339v-0.02c0.059,0.394,0.098,0.728,0.098,1.099      c0,1.277-0.492,2.182-2.299,2.182c-2.082,0-2.691-0.768-2.691-2.143C179.654,250.259,179.949,248.982,179.949,247.529z"/>
				<path style="fill:#BACDE5;" d="M191.022,250.987c0.589-1.67,4.261-14.061,7.403-24.628v0.02      c0.354-1.473,0.923-3.101,1.257-3.416c0.413-0.433,1.219-0.725,1.885-0.725c1.847,0,2.259,1.335,3.006,3.77l4.929,15.65      l0.274,0.824c2.829-8.719,3.77-13.491,4.812-16.71c0.55-1.631,0.844-3.534,2.965-3.534c0.924,0,1.61,0.174,2.003,1.139      c0.688,1.766,1.375,3.042,8.522,25.921c0.315,0.844,0.53,1.395,0.569,1.926c0.098,1.353-0.392,2.494-2.041,2.494      c-2.082,0-2.652-1.926-2.907-3.163c-1.472-5.46-4.301-15.259-6.186-20.562c-1.964,5.539-3.142,11.43-5.224,17.067      c-0.195,0.528-0.294,1.237-0.294,1.65c0,1.451-1.277,1.844-2.415,1.844c-1.925,0-2.259-1.217-2.474-2.474      c-0.059-0.354-0.118-0.725-0.216-1.08c-1.316-4.732-3.672-12.745-5.283-17.067c-1.944,5.362-4.399,16.811-6.146,22.114      c-0.609,1.021-1.04,1.67-2.199,1.67c-1.336,0-2.338-0.964-2.338-2.123C190.924,251.358,190.943,251.184,191.022,250.987z"/>
				<path style="fill:#BACDE5;" d="M233.913,249.533l0.177-0.63l-0.451-23.486c0-2.593,1.296-2.612,2.553-2.612h10.348      c0.472-0.039,1.178-0.177,1.414-0.177c1.984,0,2.376,0.708,2.376,2.123c0,2.002-1.08,2.297-2.376,2.297      c-0.295,0-0.806,0-1.316-0.059c-5.086,0-5.891,0.02-6.637,0.02h-1.826v6.225c0.51,0.02,1.001,0.02,9.72,0.02      c0.295,0,0.688-0.039,1.04-0.079c0.472-0.059,1.121-0.118,1.847-0.118c1.413,0,2.218,1.276,2.218,2.159      c0,1.394-1.04,2.044-2.494,2.044l-12.332,0.02v11.761c2.573,0,5.164,0.118,8.012,0.118c0.786,0,1.434-0.098,2.023-0.197      c0.549-0.079,1.099-0.158,1.767-0.158c1.551,0,2.768,0.433,2.768,1.985c0,2.277-1.728,2.356-3.554,2.356h-13.216      c-1.336,0-2.337-0.61-2.337-2.218C233.639,250.476,233.796,249.947,233.913,249.533z"/>
				<path style="fill:#BACDE5;" d="M261.787,247.236c1.336,0,2.417,0.784,2.417,2.258c0,2.711-1.16,4.262-2.612,4.262      c-1.414,0-2.2-1.394-2.18-2.3C259.47,248.572,259.941,247.236,261.787,247.236z M259.862,241.244      c0-0.607,0.118-1.178,0.118-1.825c0-7.069-0.471-14.14-0.471-21.524c0-1.08,0.668-2.061,2.514-2.061      c1.1,0,2.278,0.568,2.278,2.179c0,3.436-0.235,13.983-0.235,21.464c0,0.568,0.156,1.1,0.156,1.864      c0,1.218-0.922,1.887-2.277,1.887C260.865,243.23,259.862,242.58,259.862,241.244z"/>
			</g>
		</g>
		<g>
			<path style="fill:#FFFFFF;" d="M483.613,396.594l-12.452,6.865c-59.365-2.736-176.654-7.964-176.654-6.547l34.324-94.178h160.285     L483.613,396.594z"/>
			<path style="fill:#FFB05C;" d="M498.303,362.929v41.8c-5.839-0.293-15.342-0.733-27.142-1.27     c3.884-24.357,16.222-100.725,17.956-100.725L498.303,362.929z"/>
			<g>
				<g>
					<circle style="fill:#AE85A6;" cx="336.038" cy="314.419" r="4.522"/>
					<g>
						<path style="fill:#5A2250;" d="M343.905,299.68c-2.785,0-5.326,1.173-7.085,3.054c-1.71,1.759-2.736,4.129-2.736,6.767        c0,0.269,0,0.562,0.073,0.831c0.244,3.225,2.052,6.01,4.691,7.573c0.244-0.195,0.513-0.464,0.757-0.782        c-2.516-1.441-4.251-4.08-4.422-7.134c-0.024-0.147-0.024-0.318-0.024-0.489c0-2.736,1.27-5.204,3.274-6.767        c1.515-1.246,3.42-1.954,5.472-1.954c2.003,0,3.86,0.684,5.35,1.857h1.661C349.133,300.803,346.641,299.68,343.905,299.68z"/>
					</g>
					<path style="fill:#AE85A6;" d="M338.268,318.395c-0.073,0.049-0.122,0.074-0.122,0.074v-0.391L338.268,318.395z"/>
				</g>
				<g>
					<path style="fill:#AE85A6;" d="M362.599,314.419c0,2.497-2.025,4.522-4.522,4.522c-2.497,0-4.522-2.025-4.522-4.522       c0-2.497,2.025-4.522,4.522-4.522C360.574,309.897,362.599,311.922,362.599,314.419z"/>
					<g>
						<path style="fill:#5A2250;" d="M365.941,299.68c-2.785,0-5.326,1.173-7.085,3.054c-1.71,1.759-2.736,4.129-2.736,6.767        c0,0.269,0,0.562,0.073,0.831c0.244,3.225,2.052,6.01,4.691,7.573c0.244-0.195,0.513-0.464,0.757-0.782        c-2.516-1.441-4.251-4.08-4.422-7.134c-0.025-0.147-0.025-0.318-0.025-0.489c0-2.736,1.271-5.204,3.274-6.767        c1.515-1.246,3.42-1.954,5.473-1.954c2.003,0,3.86,0.684,5.35,1.857h1.661C371.169,300.803,368.677,299.68,365.941,299.68z"/>
					</g>
					<path style="fill:#AE85A6;" d="M360.307,318.395c-0.073,0.049-0.122,0.074-0.122,0.074v-0.391L360.307,318.395z"/>
				</g>
				<g>
					<path style="fill:#AE85A6;" d="M384.638,314.419c0,2.497-2.025,4.522-4.522,4.522c-2.498,0-4.522-2.025-4.522-4.522       c0-2.497,2.025-4.522,4.522-4.522C382.613,309.897,384.638,311.922,384.638,314.419z"/>
					<g>
						<path style="fill:#5A2250;" d="M388.001,299.68c-2.785,0-5.326,1.173-7.084,3.054c-1.71,1.759-2.736,4.129-2.736,6.767        c0,0.269,0,0.537,0.049,0.806c0.245,3.225,2.077,6.01,4.715,7.598c0.122-0.098,0.245-0.22,0.391-0.342        c0.122-0.122,0.244-0.269,0.366-0.44c-2.516-1.441-4.251-4.08-4.422-7.134c-0.024-0.147-0.024-0.318-0.024-0.489        c0-2.736,1.27-5.179,3.249-6.767c1.515-1.221,3.42-1.954,5.497-1.954c2.003,0,3.86,0.684,5.35,1.857h1.661        C393.229,300.803,390.737,299.68,388.001,299.68z"/>
					</g>
					<path style="fill:#AE85A6;" d="M382.346,318.395c-0.074,0.049-0.122,0.074-0.122,0.074v-0.391L382.346,318.395z"/>
				</g>
				<g>
					<path style="fill:#AE85A6;" d="M406.677,314.419c0,2.497-2.025,4.522-4.522,4.522c-2.497,0-4.522-2.025-4.522-4.522       c0-2.497,2.025-4.522,4.522-4.522C404.652,309.897,406.677,311.922,406.677,314.419z"/>
					<g>
						<path style="fill:#5A2250;" d="M410.037,299.68c-2.785,0-5.326,1.173-7.085,3.054c-1.71,1.759-2.736,4.129-2.736,6.767        c0,0.269,0,0.537,0.049,0.806c0.244,3.225,2.077,6.01,4.715,7.598c0.122-0.098,0.244-0.22,0.391-0.342        c0.122-0.122,0.244-0.269,0.366-0.44c-2.516-1.441-4.251-4.08-4.422-7.134c-0.024-0.147-0.024-0.318-0.024-0.489        c0-2.736,1.27-5.179,3.249-6.767c1.515-1.221,3.42-1.954,5.497-1.954c2.004,0,3.86,0.684,5.35,1.857h1.661        C415.265,300.803,412.773,299.68,410.037,299.68z"/>
					</g>
					<path style="fill:#AE85A6;" d="M404.385,318.395c-0.073,0.049-0.122,0.074-0.122,0.074v-0.391L404.385,318.395z"/>
				</g>
				<g>
					<path style="fill:#AE85A6;" d="M428.716,314.419c0,2.497-2.025,4.522-4.522,4.522c-2.497,0-4.522-2.025-4.522-4.522       c0-2.497,2.025-4.522,4.522-4.522C426.691,309.897,428.716,311.922,428.716,314.419z"/>
					<g>
						<path style="fill:#5A2250;" d="M432.073,299.68c-2.785,0-5.326,1.173-7.085,3.054c-1.71,1.759-2.736,4.129-2.736,6.767        c0,0.269,0,0.537,0.049,0.806c0.244,3.225,2.077,6.01,4.715,7.598c0.244-0.195,0.513-0.464,0.757-0.782        c-2.517-1.441-4.251-4.08-4.422-7.134c-0.025-0.147-0.025-0.318-0.025-0.489c0-2.736,1.27-5.179,3.249-6.767        c1.515-1.221,3.42-1.954,5.497-1.954c2.003,0,3.86,0.684,5.35,1.857h1.661C437.301,300.803,434.809,299.68,432.073,299.68z"/>
					</g>
					<path style="fill:#AE85A6;" d="M426.424,318.395c-0.073,0.049-0.122,0.074-0.122,0.074v-0.391L426.424,318.395z"/>
				</g>
				<g>
					<circle style="fill:#AE85A6;" cx="446.233" cy="314.419" r="4.522"/>
					<g>
						<path style="fill:#5A2250;" d="M454.109,299.68c-2.785,0-5.326,1.173-7.084,3.054c-1.71,1.759-2.736,4.129-2.736,6.767        c0,0.269,0,0.537,0.049,0.806c0.245,3.225,2.077,6.01,4.715,7.598c0.245-0.195,0.513-0.464,0.757-0.782        c-2.516-1.441-4.251-4.08-4.422-7.134c-0.024-0.147-0.024-0.318-0.024-0.489c0-2.736,1.27-5.179,3.249-6.767        c1.515-1.221,3.42-1.954,5.497-1.954c2.003,0,3.86,0.684,5.35,1.857h1.661C459.337,300.803,456.845,299.68,454.109,299.68z"/>
					</g>
					<path style="fill:#AE85A6;" d="M448.463,318.395c-0.073,0.049-0.122,0.074-0.122,0.074v-0.391L448.463,318.395z"/>
				</g>
				<g>
					<path style="fill:#AE85A6;" d="M472.794,314.419c0,2.497-2.025,4.522-4.522,4.522c-2.497,0-4.522-2.025-4.522-4.522       c0-2.497,2.025-4.522,4.522-4.522C470.769,309.897,472.794,311.922,472.794,314.419z"/>
					<g>
						<path style="fill:#5A2250;" d="M476.145,299.68c-2.785,0-5.326,1.173-7.085,3.054c-1.71,1.759-2.736,4.129-2.736,6.767        c0,0.269,0,0.562,0.074,0.831c0.244,3.225,2.052,6.01,4.69,7.573c0.244-0.195,0.513-0.464,0.757-0.782        c-2.516-1.441-4.251-4.08-4.422-7.134c-0.024-0.147-0.024-0.318-0.024-0.489c0-2.736,1.27-5.179,3.249-6.767        c1.515-1.221,3.42-1.954,5.497-1.954c2.004,0,3.86,0.684,5.35,1.857h1.661C481.373,300.803,478.881,299.68,476.145,299.68z"/>
					</g>
					<path style="fill:#AE85A6;" d="M470.502,318.395c-0.074,0.049-0.122,0.074-0.122,0.074v-0.391L470.502,318.395z"/>
				</g>
			</g>
			<g>
				<g>
					<path style="fill:#5A2250;" d="M475.045,328.336c-0.122-0.147-0.293-0.244-0.464-0.244l-20.839-0.269h-0.024l-1.148-0.024       l-21.645-0.293l-1.197-0.024l-18.738-0.244l-1.221-0.024l-20.033-0.269h-1.221l-20.033-0.269h-0.024l-1.173-0.024       l-19.153-0.269h-1.197l-19.349-0.269c-0.268,0-0.489,0.171-0.586,0.391l-4.398,11.287l-0.464,1.197l-4.299,11.018l-0.464,1.221       l-4.789,12.288l-0.464,1.197l-4.862,12.484l-0.464,1.221l-4.935,12.655c-0.073,0.195-0.049,0.391,0.049,0.562       c0.098,0.171,0.293,0.269,0.489,0.269l21.841,0.635l1.197,0.049l19.031,0.562l1.197,0.024l19.935,0.586l1.197,0.049       l19.935,0.586l1.197,0.024l19.837,0.586h0.024l1.197,0.024l26.091,0.782l1.197,0.024l25.383,0.757c0.024,0,0.024,0,0.024,0       c0.293,0,0.537-0.22,0.611-0.513l2.931-15.293l0.22-1.221l2.443-12.679l0.22-1.221l2.37-12.313l0.22-1.221l2.125-11.018       l0.22-1.221l2.125-11.067C475.216,328.654,475.168,328.458,475.045,328.336z M471.796,339.867l-0.22,1.221l-2.125,11.042       l-0.245,1.221l-2.345,12.313l-0.245,1.221l-2.419,12.655l-0.244,1.222l-2.785,14.585l-24.601-0.733l-1.172-0.024l-26.018-0.757       l-1.197-0.049l-19.837-0.586l-1.197-0.024l-19.935-0.586l-1.197-0.049l-19.935-0.586l-1.197-0.024l-19.031-0.562l-1.197-0.024       l-21.352-0.635l4.788-12.264l0.464-1.221l4.862-12.484l0.488-1.221l4.788-12.264l0.464-1.221l4.3-11.018l0.464-1.221       l4.08-10.432l18.518,0.244l1.197,0.024l19.129,0.244l1.197,0.024l20.057,0.269l1.221,0.024l20.008,0.269h1.246l18.762,0.269       h1.197l21.718,0.293l1.173,0.024l20.399,0.269L471.796,339.867z"/>
				</g>
				<g>
					<polygon style="fill:#5A2250;" points="473.031,339.893 472.811,341.115 471.565,341.09 450.384,340.797 449.211,340.773        426.712,340.455 425.514,340.431 406.532,340.186 405.311,340.162 385.303,339.869 384.057,339.869 364.024,339.576        362.827,339.576 343.698,339.307 342.501,339.283 323.446,339.014 322.127,338.989 322.591,337.792 323.91,337.792        342.916,338.061 344.114,338.086 363.242,338.354 364.439,338.379 384.496,338.647 385.718,338.672 405.726,338.941        406.947,338.965 425.905,339.234 427.102,339.234 449.529,339.551 450.702,339.576 471.785,339.869      "/>
				</g>
				<g>
					<polygon style="fill:#5A2250;" points="470.686,352.133 470.466,353.354 469.195,353.354 447.233,353.037 446.06,353.012        422.729,352.695 421.532,352.671 402.33,352.402 401.109,352.402 381.1,352.108 379.879,352.108 359.822,351.815        358.649,351.791 339.496,351.546 338.299,351.522 318.682,351.253 317.363,351.229 317.827,350.007 319.146,350.032        338.715,350.301 339.911,350.325 359.04,350.594 360.262,350.594 380.295,350.887 381.516,350.887 401.524,351.18        402.746,351.204 421.923,351.473 423.12,351.473 446.378,351.815 447.55,351.815 469.44,352.133      "/>
				</g>
				<g>
					<polygon style="fill:#5A2250;" points="468.096,365.667 467.876,366.889 466.606,366.889 443.764,366.571 442.591,366.547        418.332,366.204 417.135,366.18 397.689,365.911 396.492,365.911 376.459,365.618 375.237,365.594 355.205,365.325        354.008,365.301 334.879,365.032 333.657,365.032 313.405,364.739 312.11,364.715 312.574,363.517 313.894,363.517        334.073,363.811 335.294,363.835 354.423,364.104 355.62,364.104 375.653,364.397 376.874,364.397 396.907,364.69        398.104,364.69 417.526,364.983 418.723,364.983 442.909,365.325 444.081,365.35 466.85,365.667      "/>
				</g>
				<g>
					<polygon style="fill:#5A2250;" points="465.433,379.568 465.213,380.789 463.943,380.765 440.221,380.398 439.024,380.398        413.861,380.008 412.64,380.008 392.974,379.714 392.949,379.714 391.752,379.69 371.72,379.397 370.522,379.373        350.49,379.079 349.293,379.055 330.164,378.762 328.943,378.762 308.079,378.444 306.784,378.419 307.248,377.198        308.544,377.223 329.358,377.54 329.382,377.54 330.579,377.565 349.708,377.833 350.905,377.858 370.938,378.151        372.135,378.175 392.168,378.469 393.389,378.493 413.03,378.786 414.228,378.81 414.252,378.81 439.342,379.177        440.539,379.201 464.187,379.544      "/>
				</g>
				<g>
					<polygon style="fill:#5A2250;" points="348.12,326.384 347.705,327.63 344.114,338.086 343.698,339.307 339.911,350.325        339.496,351.546 335.294,363.835 334.879,365.032 330.579,377.565 330.164,378.762 325.84,391.367 325.425,392.589        324.228,392.54 324.643,391.343 328.943,378.762 329.358,377.54 329.382,377.54 333.657,365.032 334.073,363.811        338.299,351.522 338.715,350.301 342.501,339.283 342.916,338.061 346.508,327.605 346.923,326.384      "/>
				</g>
				<g>
					<polygon style="fill:#5A2250;" points="368.446,326.677 368.031,327.898 364.439,338.379 364.024,339.576 360.262,350.594        359.822,351.815 355.62,364.104 355.205,365.325 350.905,377.858 350.49,379.079 346.068,391.954 345.653,393.175        344.455,393.151 344.871,391.929 349.293,379.055 349.708,377.833 354.008,365.301 354.423,364.104 358.649,351.791        359.04,350.594 359.065,350.594 362.827,339.576 363.242,338.354 366.834,327.874 367.273,326.652      "/>
				</g>
				<g>
					<polygon style="fill:#5A2250;" points="389.725,326.945 389.309,328.191 385.718,338.672 385.303,339.869 381.516,350.887        381.1,352.108 376.874,364.397 376.459,365.618 372.135,378.175 371.72,379.397 367.2,392.589 366.784,393.81 365.588,393.762        366.003,392.54 370.522,379.373 370.938,378.151 375.237,365.594 375.653,364.397 379.879,352.108 380.295,350.887        384.057,339.869 384.081,339.869 384.496,338.647 388.088,328.167 388.503,326.945      "/>
				</g>
				<g>
					<polygon style="fill:#5A2250;" points="410.979,327.239 410.563,328.46 406.947,338.965 406.532,340.186 402.746,351.204        402.33,352.402 398.104,364.69 397.689,365.911 393.389,378.493 392.974,379.714 392.949,379.714 388.332,393.2        387.917,394.421 386.72,394.397 387.135,393.175 391.752,379.69 392.168,378.469 396.492,365.911 396.907,364.69        401.109,352.402 401.524,351.18 405.311,340.162 405.726,338.941 409.317,328.46 409.757,327.214      "/>
				</g>
				<g>
					<polygon style="fill:#5A2250;" points="430.913,327.507 430.523,328.729 427.102,339.234 426.712,340.455 423.12,351.473        422.729,352.695 418.723,364.983 418.332,366.204 414.252,378.81 414.228,378.81 413.861,380.008 413.837,380.008        409.366,393.835 408.975,395.032 407.778,395.008 408.169,393.786 412.64,380.008 413.03,378.786 417.135,366.18        417.526,364.983 421.532,352.671 421.923,351.473 425.514,340.431 425.905,339.234 429.326,328.729 429.716,327.483      "/>
				</g>
				<g>
					<polygon style="fill:#5A2250;" points="453.707,327.825 453.414,329.046 450.702,339.576 450.384,340.797 447.55,351.815        447.233,353.037 444.081,365.35 443.764,366.571 440.539,379.201 440.221,380.398 436.557,394.617 436.263,395.838        435.067,395.814 435.384,394.592 439.024,380.398 439.342,379.177 442.591,366.547 442.909,365.325 446.06,353.012        446.378,351.815 449.211,340.773 449.529,339.551 452.241,329.022 452.558,327.8      "/>
				</g>
			</g>
		</g>
		<g>
			<path style="fill:#5A2250;" d="M151.443,418.383c0,1.586-15.11,2.872-33.749,2.872c-18.639,0-33.748-1.286-33.748-2.872     c0-1.586,15.11-2.872,33.748-2.872C136.333,415.51,151.443,416.796,151.443,418.383z"/>
			<g>
				<path style="fill:#FFB05C;" d="M52.873,373.597l45.666,2.442l40.341-2.442l-19.771,34.247      c-4.354,7.542-12.4,12.187-21.109,12.187h-2.941c-8.466,0-16.325-4.393-20.761-11.604L52.873,373.597z"/>
				<path style="fill:#5A2250;" d="M138.875,373.605c0,0-7.05,2.194-18.468,3.768c-1.865,0.252-2.915-2.412-5.003-2.201      c-2.258,0.229-5.572,3.33-8.065,3.476c-1.987,0.131-4.05,0.206-6.187,0.263c-0.291,0.008,0.043-1.318-0.248-1.315      c-0.347,0.003-1.318,1.334-1.665,1.334c-0.581,0.019-1.162,0.019-1.762,0.019c-0.45,0-0.881,0-1.312-0.019      c-0.229,0.011-0.276-0.946-0.501-0.949c-0.162-0.002-0.505,0.949-0.662,0.949c-0.487,0-0.956-0.019-1.425-0.019      c-0.3-0.019-1.123-1.431-1.423-1.45h-0.075c-1.275-0.038-2.008,1.337-3.245,1.281c-1.331-0.075-2.625-0.15-3.919-0.244      c-2.525-0.176-4.929-2.208-7.261-2.46c-2.136-0.231-4.218,1.323-6.145,1.054c-11.212-1.537-18.637-3.487-18.637-3.487H138.875z"/>
				<g>
					<path style="fill:#7EB291;" d="M92.677,378.874h-0.075c-1.275-0.038-2.531-0.075-3.769-0.131       c-1.444-1.481-3.131-3.206-5.006-5.137c-16.687-17.193-47.06-49.704-42.692-54.26c5.4-5.606,36.692,22.874,49.573,54.26       c0.525,1.275,1.031,2.55,1.481,3.843C92.358,377.917,92.527,378.405,92.677,378.874z"/>
					<path style="fill:#7EB291;" d="M93.577,378.911c-0.3-0.019-0.6-0.019-0.9-0.038h-0.075c-0.112-0.431-0.262-0.9-0.412-1.425       c-0.319-1.106-0.694-2.4-1.106-3.843c-5.944-20.906-19.837-73.647-9.487-76.516c10.443-2.906,11.812,54.467,11.962,76.516       C93.577,375.724,93.577,377.524,93.577,378.911z"/>
					<path style="fill:#7EB291;" d="M98.377,373.605c-0.881,2.119-1.631,3.918-2.212,5.325c-0.394,0.019-0.788,0-1.163,0       c0.112-1.406,0.244-3.206,0.431-5.325c1.762-20.118,7.218-68.303,18.955-69.822       C126.182,302.265,106.776,352.869,98.377,373.605z"/>
					<path style="fill:#7EB291;" d="M147.649,334.176c-1.369,3.075-26.418,26.305-40.704,39.43c-2.25,2.044-4.219,3.862-5.794,5.306       c-0.637,0.019-1.275,0.019-1.913,0.019c0.844-1.425,1.931-3.244,3.206-5.325c10.425-17.081,33.617-52.198,44.735-46.367       C147.18,327.239,149.562,329.882,147.649,334.176z"/>
					<path style="fill:#7EB291;" d="M154.193,356.656c-1.294,1.706-13.912,9.262-27.243,16.949       c-2.175,1.256-4.369,2.512-6.543,3.768c-3.881,0.525-8.269,0.994-13.069,1.275c1.669-1.631,3.431-3.319,5.287-5.043       c15.187-14.156,35.286-30.205,42.673-23.83C155.299,349.775,157.043,352.887,154.193,356.656z"/>
					<path style="fill:#7EB291;" d="M79.777,373.605c1.8,1.669,3.525,3.319,5.137,4.893c-4.837-0.337-9.375-0.844-13.405-1.406       c-2.006-1.162-4.031-2.325-6.056-3.487c-13.33-7.687-25.949-15.243-27.242-16.949c-2.85-3.769-1.106-6.881-1.106-6.881       C44.491,343.4,64.591,359.45,79.777,373.605z"/>
				</g>
			</g>
		</g>
		<g>
			<polygon style="fill:#FF9FC6;" points="140.234,445.146 140.234,413.335 173.652,434.333 200.113,464.482    "/>
			<polygon style="fill:#FFE8D1;" points="140.234,413.335 404.078,411.464 461.462,458.244 200.113,464.482    "/>
			<g>
				<path style="fill:#AE85A6;" d="M448.246,454.566l-8.575-6.914l-0.709-0.586l-10.603-8.551l-9.601-7.744l-0.733-0.611      l-9.601-7.744l-0.757-0.611l-8.086-6.523c-0.049-0.049-0.122-0.073-0.171-0.073h-0.024l-17.125,0.147h-0.025l-0.928,0.024      l-22.158,0.195h-0.928l-17.907,0.171h-0.928l-17.907,0.171h-0.928l-17.883,0.171h-0.953l-17.858,0.171h-0.928l-17.907,0.171      h-0.928l-17.883,0.171h-0.953l-17.883,0.171h-0.928l-17.907,0.171h-0.928l-17.883,0.171h-0.953l-17.858,0.171h-0.953      l-12.899,0.122c-0.122,0-0.245,0.073-0.269,0.195c-0.049,0.122-0.024,0.244,0.073,0.342l6.767,5.643l0.733,0.611l9.283,7.744      l0.708,0.586l9.284,7.744l0.733,0.611l12.581,10.505l0.709,0.586l10.04,8.38c0.073,0.049,0.122,0.073,0.196,0.073      c0,0,0,0,0.024,0l12.142-0.269l0.879-0.024h0.024l17.639-0.391l0.879-0.024h0.025l17.638-0.366h0.024l0.879-0.024l17.663-0.391      l0.88-0.024l17.663-0.391l0.879-0.024l17.638-0.391h0.025l0.879-0.024h0.025l17.614-0.391h0.928l17.639-0.391h0.024l0.879-0.024      l17.663-0.391l0.879-0.024l17.638-0.391l0.879-0.024h0.024l17.638-0.391h0.904l21.84-0.489l0.928-0.024l18.86-0.415      c0.147,0,0.244-0.098,0.293-0.22C448.392,454.786,448.343,454.664,448.246,454.566z M428.457,454.932l-0.904,0.024l-21.84,0.489      h-0.904l-17.663,0.391l-0.88,0.024l-17.638,0.391l-0.879,0.024h-0.024l-17.638,0.391l-0.904,0.024l-17.663,0.391l-0.879,0.024      l-17.638,0.391l-0.904,0.024l-17.638,0.391h-0.904l-17.663,0.391l-0.879,0.024l-17.663,0.391l-0.879,0.024l-17.639,0.391h-0.024      l-0.879,0.024h-0.024l-17.638,0.391l-0.88,0.024l-11.36,0.244l-9.406-7.866l-0.708-0.586l-12.557-10.48l-0.733-0.611      l-9.283-7.744l-0.708-0.586l-9.284-7.744l-0.733-0.611l-6.694-5.594l12.728-0.122h0.953l17.858-0.171h0.953l17.883-0.171h0.928      l17.907-0.171h0.928l17.907-0.147l0.928-0.024l17.883-0.147h0.024l0.904-0.024l17.907-0.147h0.025l0.904-0.024l17.883-0.147      h0.024l0.904-0.024h0.024l17.883-0.147l0.904-0.024h0.024l17.907-0.147l0.904-0.024h0.024l17.907-0.147h0.928l22.134-0.22h0.953      l16.344-0.147l7.427,6.01l0.757,0.586l9.601,7.744l0.733,0.611l9.601,7.744l0.757,0.611l9.87,7.964l0.708,0.586l8.477,6.84      L428.457,454.932z"/>
			</g>
			<g>
				<g>
					<polygon style="fill:#AE85A6;" points="408.425,422.416 407.472,422.416 390.64,422.538 389.711,422.563 389.687,422.563        367.48,422.709 366.576,422.734 348.62,422.856 347.692,422.856 329.76,423.002 328.832,423.002 310.9,423.125        309.972,423.149 292.04,423.271 291.112,423.271 273.18,423.418 272.252,423.418 254.32,423.54 253.392,423.564        235.46,423.686 234.532,423.686 216.6,423.833 215.672,423.833 197.716,423.955 196.787,423.955 178.88,424.102        177.927,424.102 165.346,424.199 164.369,424.199 163.636,423.589 164.613,423.589 177.219,423.491 178.147,423.491        196.079,423.369 196.103,423.369 197.007,423.344 214.963,423.222 215.892,423.222 233.823,423.076 234.752,423.076        252.683,422.953 253.612,422.929 271.543,422.807 272.472,422.807 290.403,422.66 291.332,422.66 309.263,422.538        310.192,422.514 328.123,422.392 329.052,422.392 346.983,422.245 347.912,422.245 365.868,422.123 366.796,422.123        388.979,421.952 389.956,421.952 406.715,421.83 407.667,421.805      "/>
				</g>
				<g>
					<polygon style="fill:#AE85A6;" points="418.759,430.771 417.806,430.771 400.387,430.893 399.459,430.918 377.252,431.064        376.324,431.064 358.368,431.211 357.464,431.211 339.508,431.333 338.604,431.357 320.648,431.48 319.719,431.48        301.788,431.602 301.763,431.602 300.884,431.626 300.859,431.626 282.928,431.748 281.975,431.748 264.068,431.895        263.139,431.895 245.183,432.017 244.279,432.041 226.323,432.164 225.395,432.164 207.463,432.286 207.439,432.286        206.535,432.31 188.603,432.432 187.65,432.432 175.338,432.53 174.361,432.53 173.652,431.944 174.63,431.944        186.966,431.846 187.919,431.846 205.851,431.724 206.755,431.699 206.779,431.699 224.711,431.577 225.639,431.577        243.571,431.431 244.499,431.431 262.431,431.309 263.384,431.309 281.291,431.162 282.219,431.162 300.151,431.015        301.079,431.015 319.035,430.893 319.964,430.893 337.895,430.747 338.824,430.747 356.755,430.625 356.78,430.625        357.659,430.6 357.684,430.6 375.615,430.478 376.544,430.478 398.751,430.307 399.703,430.307 417.073,430.16 418.026,430.16             "/>
				</g>
				<g>
					<polygon style="fill:#AE85A6;" points="429.117,439.126 428.164,439.126 410.159,439.248 409.231,439.273 387,439.419        386.096,439.444 368.14,439.566 367.211,439.566 349.28,439.688 349.255,439.688 348.376,439.712 348.351,439.712        330.42,439.835 329.491,439.835 311.56,439.981 310.631,439.981 292.675,440.103 291.747,440.103 273.84,440.25        272.911,440.25 254.955,440.372 254.051,440.397 236.071,440.519 235.167,440.519 217.236,440.665 216.307,440.665        198.375,440.787 197.423,440.787 185.354,440.885 184.377,440.885 183.644,440.274 184.621,440.274 196.738,440.201        197.642,440.177 197.667,440.177 215.598,440.055 216.527,440.055 234.459,439.908 235.362,439.908 253.343,439.786        254.247,439.786 272.179,439.639 273.107,439.639 291.063,439.517 291.967,439.493 309.923,439.37 310.851,439.37        328.758,439.224 329.711,439.224 347.667,439.102 348.571,439.102 366.503,438.955 367.431,438.955 385.387,438.833        386.291,438.809 408.523,438.662 409.451,438.662 427.407,438.515 428.36,438.515      "/>
				</g>
				<g>
					<polygon style="fill:#AE85A6;" points="439.671,447.652 438.742,447.677 420.371,447.994 419.443,448.019 397.504,448.41        396.576,448.41 378.84,448.727 377.96,448.752 360.224,449.069 359.345,449.094 359.32,449.094 341.609,449.411        340.68,449.411 322.944,449.729 322.065,449.753 304.328,450.071 303.424,450.095 285.713,450.413 284.784,450.413        267.048,450.73 266.169,450.755 248.408,451.072 247.529,451.097 247.504,451.097 229.792,451.414 228.864,451.414        211.152,451.732 210.248,451.757 198.62,451.952 197.667,451.976 196.958,451.39 197.911,451.366 209.564,451.17        210.468,451.146 228.18,450.828 229.084,450.804 246.82,450.486 247.724,450.486 265.46,450.169 266.364,450.144        284.1,449.827 285.029,449.827 302.741,449.509 303.645,449.485 321.38,449.167 322.26,449.142 339.996,448.825        340.925,448.825 358.661,448.507 359.54,448.483 377.276,448.165 378.18,448.165 395.917,447.848 396.82,447.823        418.759,447.432 419.687,447.408 438.034,447.09 438.962,447.066      "/>
				</g>
				<g>
					<polygon style="fill:#AE85A6;" points="220.949,460.136 220.069,460.16 219.385,459.574 210.248,451.757 209.564,451.17        197.447,440.787 197.423,440.787 196.738,440.201 187.675,432.432 187.65,432.432 186.991,431.846 186.966,431.846        177.927,424.102 177.219,423.491 170.647,417.872 169.963,417.286 170.916,417.286 171.6,417.872 178.147,423.491        178.856,424.102 178.88,424.102 187.919,431.846 188.603,432.432 197.642,440.177 197.667,440.177 198.351,440.787        198.375,440.787 210.468,451.146 211.152,451.732 220.265,459.55      "/>
				</g>
				<g>
					<polygon style="fill:#AE85A6;" points="239.491,459.721 238.612,459.745 237.928,459.159 237.903,459.159 228.864,451.414        228.18,450.828 216.307,440.665 215.598,440.055 206.535,432.31 205.851,431.724 196.787,423.955 196.103,423.369        196.079,423.369 189.483,417.701 189.458,417.701 188.799,417.115 189.727,417.115 190.411,417.701 197.007,423.344        197.716,423.955 206.755,431.699 206.779,431.699 207.439,432.286 207.463,432.286 216.527,440.055 217.236,440.665        229.084,450.804 229.792,451.414 238.807,459.134 238.831,459.134      "/>
				</g>
				<g>
					<polygon style="fill:#AE85A6;" points="258.058,459.33 257.178,459.354 257.154,459.354 256.47,458.743 247.529,451.097        247.504,451.097 246.82,450.486 235.167,440.519 234.459,439.908 225.395,432.164 224.711,431.577 215.672,423.833        214.963,423.222 208.318,417.53 208.294,417.53 207.634,416.944 208.538,416.944 209.222,417.53 215.867,423.222        215.892,423.222 216.576,423.833 216.6,423.833 225.639,431.577 226.323,432.164 235.362,439.908 236.071,440.519        247.724,450.486 248.408,451.072 257.349,458.719      "/>
				</g>
				<g>
					<polygon style="fill:#AE85A6;" points="276.6,458.915 275.721,458.939 275.012,458.328 266.169,450.755 265.46,450.169        254.051,440.397 253.343,439.786 244.279,432.041 243.595,431.431 243.571,431.431 234.532,423.686 233.823,423.076        227.154,417.359 227.13,417.359 226.445,416.773 227.374,416.773 228.058,417.359 234.752,423.076 235.46,423.686        244.499,431.431 245.183,432.017 254.247,439.786 254.955,440.372 266.364,450.144 267.048,450.73 275.892,458.304      "/>
				</g>
				<g>
					<polygon style="fill:#AE85A6;" points="295.143,458.499 294.263,458.524 293.555,457.913 284.784,450.413 284.1,449.827        272.911,440.25 272.203,439.639 272.179,439.639 263.139,431.895 262.455,431.309 262.431,431.309 253.392,423.564        252.683,422.953 245.965,417.212 245.257,416.602 246.209,416.602 246.893,417.188 253.612,422.929 254.32,423.54        263.384,431.309 264.068,431.895 273.107,439.639 273.815,440.25 273.84,440.25 285.004,449.827 285.029,449.827        285.688,450.413 285.713,450.413 294.459,457.913      "/>
				</g>
				<g>
					<polygon style="fill:#AE85A6;" points="313.685,458.084 312.806,458.108 312.781,458.108 312.097,457.522 303.424,450.095        302.741,449.509 291.771,440.103 291.747,440.103 291.063,439.517 281.999,431.748 281.975,431.748 281.315,431.162        281.291,431.162 272.252,423.418 271.543,422.807 264.801,417.041 264.776,417.041 264.092,416.431 265.021,416.431        265.704,417.017 272.472,422.807 273.18,423.418 282.219,431.162 282.928,431.748 291.967,439.493 292.675,440.103        303.645,449.485 304.328,450.071 313.001,457.498      "/>
				</g>
				<g>
					<polygon style="fill:#AE85A6;" points="332.252,457.693 331.324,457.693 330.639,457.107 322.065,449.753 321.38,449.167        310.631,439.981 309.923,439.37 300.884,431.626 300.859,431.626 300.175,431.015 300.151,431.015 291.112,423.271        290.403,422.66 283.636,416.87 283.612,416.87 282.928,416.26 283.856,416.26 284.54,416.846 291.332,422.66 292.04,423.271        301.079,431.015 301.763,431.602 301.788,431.602 310.827,439.37 310.851,439.37 311.535,439.981 311.56,439.981        322.26,449.142 322.944,449.729 331.519,457.082      "/>
				</g>
				<g>
					<polygon style="fill:#AE85A6;" points="350.794,457.278 349.915,457.302 349.891,457.302 349.182,456.691 340.68,449.411        339.996,448.825 329.491,439.835 328.783,439.224 328.758,439.224 319.719,431.48 319.035,430.893 309.972,423.149        309.263,422.538 302.447,416.699 302.423,416.699 301.714,416.089 302.667,416.089 303.351,416.675 303.376,416.675        310.192,422.514 310.9,423.125 319.964,430.893 320.648,431.48 329.711,439.224 330.42,439.835 340.9,448.825 340.925,448.825        341.584,449.411 341.609,449.411 350.086,456.667      "/>
				</g>
				<g>
					<polygon style="fill:#AE85A6;" points="369.337,456.862 368.457,456.887 367.749,456.276 367.724,456.276 359.345,449.094        359.32,449.094 358.661,448.507 348.376,439.712 348.351,439.712 347.667,439.102 338.604,431.357 337.895,430.747        328.832,423.002 328.123,422.392 321.258,416.528 320.55,415.918 321.478,415.918 322.162,416.504 322.187,416.504        329.052,422.392 329.76,423.002 338.824,430.747 339.508,431.333 348.571,439.102 349.255,439.688 349.28,439.688        359.54,448.483 360.224,449.069 368.628,456.252      "/>
				</g>
				<g>
					<polygon style="fill:#AE85A6;" points="387.855,456.447 386.975,456.471 386.267,455.861 377.96,448.752 377.276,448.165        367.211,439.566 366.503,438.955 357.464,431.211 356.78,430.625 356.755,430.625 347.692,422.856 346.983,422.245        340.094,416.357 339.386,415.747 340.314,415.747 340.998,416.333 341.022,416.333 347.912,422.245 348.62,422.856        357.659,430.6 357.684,430.6 358.368,431.211 367.431,438.955 368.14,439.566 378.18,448.165 378.84,448.727 387.146,455.836             "/>
				</g>
				<g>
					<polygon style="fill:#AE85A6;" points="406.421,456.056 405.518,456.056 404.809,455.445 396.601,448.41 396.576,448.41        395.917,447.848 386.096,439.444 385.387,438.833 376.324,431.064 375.64,430.478 375.615,430.478 366.576,422.734        365.868,422.123 358.93,416.186 358.221,415.576 359.149,415.576 359.858,416.186 366.771,422.123 366.796,422.123        367.48,422.709 376.544,430.478 377.228,431.064 377.252,431.064 386.291,438.809 387,439.419 396.82,447.823 397.504,448.41        405.713,455.445      "/>
				</g>
				<g>
					<polygon style="fill:#AE85A6;" points="429.19,455.543 428.262,455.568 427.553,454.957 419.443,448.019 418.759,447.432        409.231,439.273 408.523,438.662 399.459,430.918 398.751,430.307 389.711,422.563 389.687,422.563 389.003,421.952        388.979,421.952 381.991,415.967 381.307,415.38 382.236,415.356 382.26,415.356 382.944,415.967 389.931,421.952        389.956,421.952 390.64,422.538 399.703,430.307 400.387,430.893 409.451,438.662 410.159,439.248 419.687,447.408        420.371,447.994 428.457,454.932      "/>
				</g>
			</g>
		</g>
		<g>
			<g>
				<g>
					<g>
						<polygon style="fill:#FFB05C;" points="240.241,488.03 240.219,488.045 58.025,482.992 58.099,480.224 58.131,478.868         58.199,476.333 58.277,473.546 58.324,472.213 58.414,468.67 240.627,473.727 240.623,473.746 240.529,477.21         240.498,478.663 240.412,481.39 240.355,483.869 240.305,485.318       "/>
					</g>
				</g>
				<g style="opacity:0.28;">
					<g>
						<polygon style="fill:#5A2250;" points="240.241,488.03 240.219,488.045 58.025,482.992 58.099,480.224 58.131,478.868         58.199,476.333 240.412,481.39 240.336,483.865 240.355,483.869 240.305,485.318       "/>
					</g>
				</g>
				<g>
					<g>
						<g>
							<path style="fill:#5A2250;" d="M241.24,477.952c-0.021,0.405-0.353,0.709-0.742,0.711l-0.019-0.004l-181.962-5.047         l-0.112-0.022c-0.038-0.007,0.148-0.018,0.115-0.044l0.047-1.333c0.086-0.042-0.077-0.045,0.001-0.05l181.962,5.047         C240.918,477.208,241.242,477.544,241.24,477.952z"/>
						</g>
					</g>
					<g>
						<g>
							<path style="fill:#5A2250;" d="M241.043,484.626c0.001,0.389-0.334,0.713-0.739,0.692l-181.962-5.047         c-0.037-0.007-0.078,0.004-0.116-0.003c-0.037-0.007,0.191-0.018,0.157-0.044l0.032-1.356         c0.064-0.026-0.139-0.049-0.041-0.05l181.962,5.047l0.019,0.004C240.74,483.886,241.064,484.222,241.043,484.626z"/>
						</g>
					</g>
				</g>
				<g>
					<g>
						<polygon style="fill:#FF8D9E;" points="262.429,480.884 252.293,484.145 240.223,488.049 240.62,473.747 252.531,477.648               "/>
					</g>
				</g>
				<g>
					<g>
						<path style="fill:#5A2250;" d="M262.429,480.884l-10.136,3.261c-0.376-2.159-0.313-4.422,0.238-6.497L262.429,480.884z"/>
					</g>
				</g>
			</g>
			<g>
				<path style="fill:#FF8D9E;" d="M58.414,468.67c0,0,6.352,2.591,6.131,6.894c-0.221,4.303-6.52,7.427-6.52,7.427L58.414,468.67z"/>
			</g>
		</g>
		<path style="fill:#FF8D9E;" d="M483.613,485.502c-14.918-6.261-27.663-17.3-34.775-31.832l-52.946,0.431    c3.54,18.208,17.914,33.873,35.751,38.962L483.613,485.502z"/>
		<g>
			<g>
				<path style="fill:#FFE8D1;" d="M472.495,190.105l3.1,0.938c0.731,0.221,0.75,1.251,0.027,1.467l-3.005,0.901      c-4.869,1.459-8.704,5.163-10.33,9.976l-1.358,4.02c-0.237,0.702-1.242,0.666-1.46-0.052l-0.981-3.243      c-1.598-5.282-5.76-9.444-11.042-11.042l-3.029-0.916c-0.737-0.223-0.748-1.264-0.016-1.47l3.01-0.851      c5.248-1.483,9.321-5.556,10.804-10.804l0.851-3.009c0.207-0.732,1.248-0.721,1.47,0.016l0.916,3.029      C463.051,184.345,467.213,188.507,472.495,190.105z"/>
			</g>
			<g>
				<path style="fill:#FFE8D1;" d="M150.642,82.821l3.099,0.938c0.731,0.221,0.75,1.251,0.027,1.468l-3.005,0.9      c-4.869,1.459-8.704,5.163-10.33,9.976l-1.358,4.02c-0.237,0.702-1.242,0.666-1.46-0.052l-0.981-3.243      c-1.598-5.282-5.76-9.444-11.042-11.042l-3.029-0.916c-0.737-0.223-0.749-1.264-0.016-1.47l3.01-0.851      c5.248-1.483,9.321-5.556,10.804-10.804l0.851-3.01c0.207-0.732,1.248-0.721,1.47,0.016l0.917,3.029      C141.198,77.061,145.36,81.223,150.642,82.821z"/>
			</g>
			<g>
				<path style="fill:#FFE8D1;" d="M409.56,90.482l2.754,0.833c0.65,0.196,0.667,1.111,0.024,1.303l-2.669,0.8      c-4.326,1.297-7.733,4.587-9.177,8.863l-1.207,3.572c-0.211,0.623-1.104,0.592-1.297-0.046l-0.872-2.881      c-1.42-4.693-5.118-8.39-9.81-9.81l-2.691-0.814c-0.655-0.198-0.665-1.123-0.014-1.307l2.674-0.756      c4.663-1.318,8.281-4.936,9.599-9.599l0.756-2.674c0.184-0.651,1.108-0.641,1.306,0.014l0.814,2.691      C401.169,85.364,404.867,89.062,409.56,90.482z"/>
			</g>
			<g>
				<path style="fill:#FFE8D1;" d="M442.41,269.705l2.754,0.833c0.65,0.196,0.667,1.111,0.024,1.303l-2.669,0.8      c-4.326,1.297-7.733,4.587-9.177,8.863l-1.207,3.572c-0.211,0.623-1.104,0.592-1.297-0.046l-0.872-2.881      c-1.42-4.693-5.118-8.391-9.81-9.81l-2.691-0.814c-0.655-0.198-0.665-1.123-0.014-1.307l2.674-0.756      c4.663-1.318,8.281-4.936,9.599-9.599l0.756-2.674c0.184-0.651,1.108-0.641,1.306,0.014l0.814,2.691      C434.02,264.587,437.718,268.285,442.41,269.705z"/>
			</g>
			<g>
				<path style="fill:#FFE8D1;" d="M74.816,436.037l2.754,0.833c0.65,0.197,0.667,1.111,0.024,1.304l-2.669,0.8      c-4.326,1.296-7.733,4.587-9.177,8.863l-1.207,3.572c-0.211,0.623-1.104,0.592-1.297-0.046l-0.872-2.881      c-1.42-4.693-5.118-8.39-9.81-9.81l-2.691-0.814c-0.655-0.198-0.665-1.123-0.014-1.307l2.674-0.756      c4.663-1.318,8.281-4.936,9.599-9.599l0.756-2.674c0.184-0.651,1.108-0.641,1.307,0.014l0.814,2.691      C66.426,430.919,70.124,434.617,74.816,436.037z"/>
			</g>
			<g>
				<path style="fill:#FFE8D1;" d="M486.488,424.394l2.754,0.833c0.65,0.197,0.666,1.111,0.024,1.304l-2.669,0.8      c-4.326,1.297-7.733,4.587-9.177,8.863l-1.207,3.572c-0.211,0.623-1.104,0.592-1.297-0.046l-0.872-2.881      c-1.42-4.693-5.117-8.39-9.81-9.81l-2.691-0.814c-0.655-0.198-0.665-1.123-0.014-1.307l2.674-0.756      c4.663-1.318,8.281-4.936,9.599-9.599l0.756-2.674c0.184-0.651,1.109-0.641,1.307,0.014l0.814,2.691      C478.098,419.276,481.796,422.974,486.488,424.394z"/>
			</g>
		</g>
		<g>
			<path style="fill:#FFE8D1;" d="M285.226,350.376l2.754,0.833c0.65,0.197,0.667,1.111,0.024,1.304l-2.669,0.8     c-4.326,1.296-7.733,4.586-9.178,8.863l-1.207,3.572c-0.211,0.623-1.103,0.592-1.297-0.046l-0.872-2.881     c-1.42-4.693-5.117-8.39-9.81-9.81l-2.691-0.814c-0.655-0.198-0.665-1.123-0.014-1.307l2.674-0.756     c4.663-1.318,8.281-4.936,9.599-9.599l0.756-2.674c0.184-0.651,1.109-0.64,1.307,0.014l0.814,2.691     C276.836,345.258,280.534,348.956,285.226,350.376z"/>
		</g>
		<g>
			<g>
				<path style="fill:#FF7268;" d="M181.525,92.445c4.372-5.885,6.868-12.994,8.19-20.205c1.322-7.212,1.525-14.576,1.692-21.905      c0.588,0.084,1.104-0.305,1.692-0.221h54.48c0.23,13.935-2.086,28.664-7.311,41.583L181.525,92.445z"/>
				<polygon style="fill:#FFE8D1;" points="214.253,56.157 214.379,40.04 223.319,39.788 223.067,56.157     "/>
			</g>
			<g>
				<path style="fill:#FFB05C;" d="M274.671,92.445c4.372-5.885,6.869-12.994,8.19-20.205s1.525-14.576,1.692-21.905      c0.588,0.084,1.104-0.305,1.692-0.221h54.48c0.23,13.935-2.086,28.664-7.311,41.583L274.671,92.445z"/>
				<polygon style="fill:#FFE8D1;" points="307.399,56.157 307.525,40.04 316.465,39.788 316.213,56.157     "/>
			</g>
		</g>
	</g>
</g>















</svg>
