<svg height="512" viewBox="0 0 512 512" width="512" xmlns="http://www.w3.org/2000/svg"><g id="Stickers"><path d="m486.085 311.635a29.137 29.137 0 0 0 -41.145 2.242l-31.2 34.807c12.849-93.912 17.3-181.435 19.113-205.37l-23.089-56.714-29.292-2.26c-5.935-38.205-52.028-50.965-72.791-21.3-10-18.381-30.6-26.837-48.8-20.58a38.232 38.232 0 0 0 -18.91 14.37 45.226 45.226 0 0 0 -11.546-13.706 29.135 29.135 0 0 0 -49.712-27.435l-89.074 99.357-21.339-27.184a29.135 29.135 0 1 0 -45.834 35.981l42.773 54.489a29.138 29.138 0 0 0 44.614 1.461l21.188-23.632-36.35 298.319 21.5.881 14.669 35.887 6.525 1.036c90.215 14.238 168.087 13.716 166.42 13.716 48.722 0 74.758-5.682 77.635-6.029 2.171-5.484 6-13.805 12.806-42.255l94.083-104.941a29.167 29.167 0 0 0 -2.244-41.14z" fill="#fff"/><path d="m74.471 171.087-42.771-54.487a17.4 17.4 0 0 1 27.37-21.491l29.973 38.182 98.408-109.769a17.4 17.4 0 0 1 25.913 23.232l-112.25 125.206a17.4 17.4 0 0 1 -26.643-.873z" fill="#7ad001"/><path d="m420.975 145.269-19.345-47.529-185.816 279.026-74.935 11.317-17.979 52.662 16.327 39.948s147.16 23.345 233.763 8.8c-.005-.001 32.072-80.421 47.985-344.224z" fill="#00abfe"/><path d="m401.63 97.74s-20.813 272.927-54.014 363.16l-220.854-10.7-3.867-9.462z" fill="#a369f7"/><path d="m152.32 78.527 249.31 19.213-67.282 354.818-226.47-9.283z" fill="#eae5db"/><g fill="#ffb020"><path d="m194.994 47.33c-22.46 7.736-25.057 41.008-4.282 55.515a4.431 4.431 0 0 0 6.522-1.441 5.581 5.581 0 0 0 -1.732-7.13c-13.638-9.535-12.42-31.855 2.88-37.124 14.8-5.092 29.645 10.856 25.232 26.875l9.742.762c4.268-23.049-17.009-44.795-38.362-37.457z"/><path d="m262.694 53.558c-22.468 7.728-25.086 40.986-4.282 55.514a4.431 4.431 0 0 0 6.522-1.441 5.605 5.605 0 0 0 -1.731-7.13c-13.717-9.589-12.4-31.855 2.858-37.119 9.9-3.407 21.006 2.764 24.777 13.692a22.611 22.611 0 0 1 .708 12.191l9.671.735a33.351 33.351 0 0 0 -1.483-15.973c-5.62-16.378-22.257-25.552-37.04-20.469z"/><path d="m367.434 80.255c-8.2-23.808-37.2-29.575-50.37-10.151-9.784 14.494-5.138 35.308 9.028 45.2a4.431 4.431 0 0 0 6.522-1.441 5.581 5.581 0 0 0 -1.732-7.13c-9.53-6.662-12.361-20.267-6.282-29.8 8.459-13.333 28.327-9.927 33.917 6.372a22.525 22.525 0 0 1 .936 11.182l9.608.748a34.031 34.031 0 0 0 -1.627-14.98z"/></g><path d="m215.355 202.263c-.041 0-.081 0-.122 0l-49.823-2.406a2.5 2.5 0 0 1 -2.369-2.733l4.457-46.89a2.5 2.5 0 0 1 2.478-2.263l51.118-.233h.011a2.5 2.5 0 0 1 2.484 2.788l-5.752 49.528a2.5 2.5 0 0 1 -2.482 2.209zm-47.088-7.277 44.873 2.167 5.157-44.4-46.035.209z" fill="#b2aca3"/><path d="m209.013 285.44-49.824-2.4a2.5 2.5 0 0 1 -2.369-2.733l4.457-46.891a2.5 2.5 0 0 1 2.478-2.264l51.119-.231h.012a2.5 2.5 0 0 1 2.483 2.788l-5.753 49.527a2.5 2.5 0 0 1 -2.603 2.204zm-46.967-7.273 44.873 2.167 5.158-44.4-46.036.208z" fill="#b2aca3"/><path d="m202.692 367.95c-.041 0-.081 0-.122 0l-49.823-2.405a2.5 2.5 0 0 1 -2.369-2.733l4.457-46.89a2.5 2.5 0 0 1 2.478-2.264l51.119-.232h.011a2.5 2.5 0 0 1 2.484 2.788l-5.753 49.527a2.5 2.5 0 0 1 -2.482 2.209zm-47.092-7.276 44.873 2.167 5.158-44.405-46.036.209z" fill="#b2aca3"/><path d="m186.681 188.587-19.746-25.153a2.5 2.5 0 1 1 3.933-3.088l17.906 22.81 41.8-46.623a2.5 2.5 0 0 1 3.723 3.338l-43.787 48.841a2.5 2.5 0 0 1 -3.829-.125z" fill="#ff605b"/><path d="m180.825 274.665-19.746-25.152a2.5 2.5 0 1 1 3.934-3.088l17.906 22.809 41.8-46.622a2.5 2.5 0 0 1 3.722 3.338l-43.786 48.84a2.5 2.5 0 0 1 -3.83-.125z" fill="#ff605b"/><path d="m174.778 358.772-19.746-25.152a2.5 2.5 0 1 1 3.934-3.088l17.906 22.81 41.8-46.622a2.5 2.5 0 1 1 3.723 3.338l-43.789 48.842a2.5 2.5 0 0 1 -3.828-.128z" fill="#ff605b"/><path d="m239.153 165.108a2.5 2.5 0 0 1 .526-4.972c.819.087 82.361 8.605 117.333 4.873a2.5 2.5 0 1 1 .531 4.972c-29.003 3.09-89.885-1.871-118.39-4.873z" fill="#1d1d3d"/><path d="m233.693 254.105a2.5 2.5 0 0 1 .414-4.982c.685.057 68.977 5.614 112.873.012a2.5 2.5 0 0 1 .633 4.959c-31.813 4.061-82.413 2.626-113.92.011z" fill="#1d1d3d"/><path d="m226.479 338.706a2.5 2.5 0 1 1 .2-5c.713.028 71.517 2.813 104.247.007a2.5 2.5 0 1 1 .428 4.982c-26.167 2.247-78.761 1.032-104.875.011z" fill="#1d1d3d"/><path d="m340.7 469.275-42.775-54.49a17.4 17.4 0 1 1 27.375-21.485l29.973 38.181 98.409-109.769a17.4 17.4 0 0 1 25.913 23.233l-112.25 125.2a17.4 17.4 0 0 1 -26.645-.87z" fill="#7ad001"/></g></svg>